<svg width="32" height="32" viewBox="0 0 32 32" fill="none" xmlns="http://www.w3.org/2000/svg">
<path d="M21.2719 14.6452L11.2673 4.64008C11.1004 4.47306 10.8786 4.37988 10.648 4.37988C10.4173 4.37988 10.1955 4.47306 10.0286 4.64008L10.0178 4.65139C9.93664 4.73236 9.87198 4.82982 9.82779 4.93785C9.78361 5.04587 9.76082 5.16221 9.76082 5.27977C9.76082 5.39733 9.78361 5.51366 9.82779 5.62169C9.87198 5.72971 9.93664 5.82718 10.0178 5.90815L19.439 15.3291L10.0178 24.7464C9.93664 24.8273 9.87198 24.9248 9.82779 25.0328C9.78361 25.1408 9.76082 25.2572 9.76082 25.3747C9.76082 25.4923 9.78361 25.6086 9.82779 25.7167C9.87198 25.8247 9.93664 25.9221 10.0178 26.0031L10.0286 26.0144C10.1955 26.1814 10.4173 26.2746 10.648 26.2746C10.8786 26.2746 11.1004 26.1814 11.2673 26.0144L21.2719 16.0093C21.3598 15.9213 21.4299 15.8155 21.4778 15.6983C21.5256 15.581 21.5503 15.4548 21.5503 15.3273C21.5503 15.1997 21.5256 15.0735 21.4778 14.9562C21.4299 14.839 21.3598 14.7332 21.2719 14.6452Z" fill="#453F41"/>
</svg>
