<svg width="32" height="32" viewBox="0 0 32 32" fill="none" xmlns="http://www.w3.org/2000/svg">
<path d="M10.7281 17.3548L20.7327 27.3599C20.8996 27.5269 21.1214 27.6201 21.352 27.6201C21.5827 27.6201 21.8045 27.5269 21.9714 27.3599L21.9822 27.3486C22.0634 27.2676 22.128 27.1702 22.1722 27.0622C22.2164 26.9541 22.2392 26.8378 22.2392 26.7202C22.2392 26.6027 22.2164 26.4863 22.1722 26.3783C22.128 26.2703 22.0634 26.1728 21.9822 26.0919L12.561 16.6709L21.9822 7.25364C22.0634 7.17268 22.128 7.07521 22.1722 6.96719C22.2164 6.85916 22.2392 6.74283 22.2392 6.62527C22.2392 6.50771 22.2164 6.39137 22.1722 6.28335C22.128 6.17532 22.0634 6.07786 21.9822 5.99689L21.9714 5.98558C21.8045 5.81856 21.5827 5.72538 21.352 5.72538C21.1214 5.72538 20.8996 5.81856 20.7327 5.98558L10.7281 15.9907C10.6402 16.0787 10.5701 16.1845 10.5222 16.3017C10.4744 16.419 10.4497 16.5452 10.4497 16.6727C10.4497 16.8003 10.4744 16.9265 10.5222 17.0438C10.5701 17.161 10.6402 17.2668 10.7281 17.3548Z" fill="#453F41"/>
</svg>
