<svg width="25" height="25" viewBox="0 0 25 25" fill="none" xmlns="http://www.w3.org/2000/svg">
    <path fill-rule="evenodd" clip-rule="evenodd"
        d="M23.6058 0.519531H1.39622C0.911634 0.519531 0.518799 0.912366 0.518799 1.39695V23.6066C0.518799 24.0912 0.911634 24.484 1.39622 24.484H23.6058C24.0904 24.484 24.4833 24.0912 24.4833 23.6066V1.39695C24.4833 0.912366 24.0904 0.519531 23.6058 0.519531ZM1.39622 0.0195312H23.6058C24.3666 0.0195312 24.9833 0.636224 24.9833 1.39695V23.6066C24.9833 24.3673 24.3666 24.984 23.6058 24.984H1.39622C0.635492 24.984 0.0187988 24.3673 0.0187988 23.6066V1.39695C0.0187988 0.636224 0.635492 0.0195312 1.39622 0.0195312Z"
        fill="#E3DEDB" />
    <path
        d="M17.2418 24.9804V15.3131H20.4861L20.9712 11.5457H17.2418V9.14105C17.2418 8.05051 17.5456 7.3059 19.1086 7.3059H21.1041V3.9309C20.1378 3.83038 19.1668 3.78249 18.1953 3.78746C15.3223 3.78746 13.3437 5.53824 13.3437 8.76769V11.5457H10.0995V15.3131H13.3437V24.9804H17.2418Z"
        fill="#E3DEDB" />
</svg>