<svg width="13" height="14" viewBox="0 0 13 14" fill="none" xmlns="http://www.w3.org/2000/svg">
<path d="M12.48 0.5H0.52C0.232375 0.5 0 0.732375 0 1.02V12.98C0 13.2676 0.232375 13.5 0.52 13.5H12.48C12.7676 13.5 13 13.2676 13 12.98V1.02C13 0.732375 12.7676 0.5 12.48 0.5ZM10.9785 4.29437H9.94013C9.126 4.29437 8.96838 4.68112 8.96838 5.24987V6.50275H10.9119L10.6584 8.46412H8.96838V13.5H6.942V8.46575H5.24712V6.50275H6.942V5.0565C6.942 3.37787 7.96738 2.463 9.46562 2.463C10.1839 2.463 10.7998 2.51663 10.9801 2.541V4.29437H10.9785Z" fill="#E3DEDB"/>
</svg>
