<svg aria-hidden="true" style="position: absolute; width: 0; height: 0; overflow: hidden;"
    version="1.1" xmlns="http://www.w3.org/2000/svg" xmlns:xlink="http://www.w3.org/1999/xlink">
    <defs>
        <symbol id="icon-burger" viewBox="0 0 32 32">
            <path d="M32 6.957h-32v-1.391h32v1.391z"></path>
            <path d="M32 16.696h-32v-1.391h32v1.391z"></path>
            <path d="M32 26.435h-32v-1.391h32v1.391z"></path>
        </symbol>
        <symbol id="icon-close" viewBox="0 0 32 32">
            <path
                d="M17.755 16.015l6.514-6.514c0.118-0.114 0.211-0.249 0.276-0.399s0.099-0.312 0.1-0.475c0.001-0.163-0.030-0.325-0.092-0.477s-0.153-0.289-0.269-0.404c-0.116-0.116-0.253-0.207-0.404-0.269s-0.313-0.093-0.477-0.092c-0.163 0.001-0.325 0.035-0.475 0.1s-0.286 0.158-0.399 0.276l-6.514 6.514-6.514-6.514c-0.232-0.224-0.543-0.348-0.866-0.345s-0.631 0.132-0.86 0.36c-0.228 0.228-0.358 0.537-0.36 0.86s0.121 0.634 0.345 0.866l6.514 6.514-6.514 6.514c-0.118 0.114-0.211 0.249-0.276 0.399s-0.098 0.312-0.1 0.475c-0.001 0.163 0.030 0.326 0.092 0.477s0.153 0.289 0.269 0.404c0.116 0.116 0.253 0.207 0.404 0.269s0.313 0.093 0.477 0.092c0.163-0.001 0.325-0.035 0.475-0.1s0.286-0.158 0.399-0.276l6.514-6.514 6.514 6.514c0.232 0.224 0.543 0.348 0.866 0.345s0.631-0.132 0.86-0.36c0.228-0.228 0.358-0.537 0.36-0.86s-0.121-0.634-0.345-0.866l-6.514-6.514z"></path>
            <path
                d="M17.755 16.015l-1.741-1.741-1.741 1.741 1.741 1.741 1.741-1.741zM24.27 9.501l-1.71-1.771-0.015 0.015-0.015 0.015 1.741 1.741zM22.53 7.76l1.741 1.741 0.015-0.015 0.015-0.015-1.771-1.71zM16.015 14.275l-1.741 1.741 1.741 1.741 1.741-1.741-1.741-1.741zM9.501 7.76l1.741-1.741-0.015-0.015-0.015-0.015-1.71 1.771zM7.76 9.501l-1.771 1.71 0.015 0.015 0.015 0.015 1.741-1.741zM14.275 16.015l1.741 1.741 1.741-1.741-1.741-1.741-1.741 1.741zM7.76 22.53l1.71 1.771 0.015-0.015 0.015-0.015-1.741-1.741zM9.501 24.27l-1.741-1.741-0.015 0.015-0.015 0.015 1.771 1.71zM16.015 17.755l1.741-1.741-1.741-1.741-1.741 1.741 1.741 1.741zM22.53 24.27l-1.741 1.741 0.015 0.015 0.015 0.015 1.71-1.77zM24.27 22.53l1.77-1.71-0.015-0.015-0.015-0.015-1.741 1.741zM19.496 17.756l6.515-6.514-3.481-3.481-6.514 6.514 3.481 3.481zM25.98 11.271c0.352-0.341 0.634-0.748 0.827-1.198l-4.523-1.943c0.064-0.15 0.158-0.286 0.276-0.399l3.42 3.541zM26.807 10.073c0.193-0.45 0.295-0.935 0.3-1.425l-4.923-0.043c0.001-0.163 0.035-0.325 0.1-0.475l4.523 1.943zM27.107 8.647c0.004-0.49-0.089-0.976-0.275-1.43l-4.556 1.864c-0.062-0.151-0.093-0.313-0.092-0.477l4.923 0.043zM26.832 7.217c-0.186-0.454-0.46-0.866-0.807-1.213l-3.481 3.481c-0.116-0.116-0.207-0.253-0.269-0.404l4.556-1.864zM26.026 6.005c-0.347-0.347-0.759-0.621-1.213-0.806l-1.864 4.556c-0.151-0.062-0.289-0.153-0.404-0.269l3.481-3.481zM24.813 5.198c-0.454-0.186-0.94-0.279-1.43-0.275l0.043 4.923c-0.163 0.001-0.326-0.030-0.477-0.092l1.864-4.556zM23.383 4.923c-0.49 0.004-0.975 0.106-1.425 0.3l1.943 4.523c-0.15 0.065-0.312 0.098-0.475 0.1l-0.043-4.923zM21.958 5.223c-0.45 0.194-0.858 0.475-1.198 0.827l3.541 3.42c-0.114 0.118-0.249 0.211-0.399 0.276l-1.943-4.523zM20.789 6.020l-6.514 6.514 3.481 3.481 6.514-6.514-3.481-3.481zM17.756 12.534l-6.514-6.514-3.481 3.481 6.514 6.514 3.481-3.481zM11.211 5.99c-0.696-0.673-1.629-1.045-2.597-1.036l0.043 4.923c-0.323 0.003-0.634-0.121-0.866-0.345l3.42-3.541zM8.614 4.953c-0.968 0.008-1.894 0.397-2.579 1.081l3.481 3.481c-0.228 0.228-0.537 0.358-0.86 0.36l-0.043-4.923zM6.035 6.035c-0.685 0.685-1.073 1.611-1.081 2.579l4.923 0.043c-0.003 0.323-0.132 0.631-0.36 0.86l-3.481-3.481zM4.953 8.614c-0.008 0.968 0.364 1.901 1.036 2.597l3.541-3.42c0.224 0.232 0.348 0.543 0.345 0.866l-4.923-0.043zM6.020 11.241l6.514 6.514 3.481-3.481-6.514-6.514-3.481 3.481zM12.534 14.275l-6.514 6.514 3.481 3.481 6.514-6.514-3.481-3.481zM6.050 20.759c-0.353 0.341-0.634 0.748-0.827 1.198l4.523 1.943c-0.065 0.15-0.158 0.286-0.276 0.399l-3.42-3.541zM5.223 21.958c-0.194 0.451-0.295 0.935-0.3 1.425l4.923 0.043c-0.001 0.163-0.035 0.325-0.1 0.475l-4.523-1.943zM4.923 23.383c-0.004 0.49 0.089 0.976 0.275 1.43l4.556-1.864c0.062 0.151 0.093 0.313 0.092 0.477l-4.923-0.043zM5.198 24.813c0.186 0.454 0.46 0.866 0.806 1.213l3.481-3.481c0.116 0.116 0.207 0.253 0.269 0.404l-4.556 1.864zM6.005 26.026c0.347 0.347 0.759 0.621 1.213 0.807l1.864-4.556c0.151 0.062 0.289 0.153 0.404 0.269l-3.481 3.481zM7.217 26.832c0.454 0.186 0.94 0.279 1.43 0.275l-0.043-4.923c0.163-0.001 0.325 0.030 0.477 0.092l-1.864 4.556zM8.647 27.107c0.49-0.004 0.975-0.106 1.425-0.3l-1.943-4.523c0.15-0.064 0.312-0.098 0.475-0.1l0.043 4.923zM10.073 26.807c0.45-0.193 0.858-0.475 1.198-0.827l-3.541-3.42c0.114-0.118 0.249-0.211 0.399-0.276l1.943 4.523zM11.241 26.011l6.514-6.515-3.481-3.481-6.514 6.514 3.481 3.481zM14.275 19.496l6.514 6.515 3.481-3.481-6.514-6.514-3.481 3.481zM20.82 26.040c0.696 0.673 1.629 1.045 2.597 1.036l-0.043-4.923c0.323-0.003 0.634 0.121 0.866 0.345l-3.42 3.541zM23.417 27.077c0.968-0.008 1.894-0.397 2.579-1.081l-3.481-3.481c0.228-0.228 0.537-0.358 0.86-0.36l0.043 4.923zM25.996 25.996c0.685-0.685 1.073-1.611 1.081-2.579l-4.923-0.043c0.003-0.323 0.132-0.631 0.36-0.86l3.481 3.481zM27.077 23.417c0.009-0.968-0.364-1.901-1.036-2.597l-3.541 3.42c-0.224-0.232-0.348-0.543-0.345-0.866l4.923 0.043zM26.011 20.789l-6.515-6.514-3.481 3.481 6.514 6.514 3.481-3.481z"></path>
        </symbol>
        <symbol id="icon-email" viewBox="0 0 32 32">
            <path
                d="M6.667 6.666h17.333c1.061 0 2.078 0.421 2.828 1.172s1.172 1.768 1.172 2.828v12c0 1.061-0.421 2.078-1.172 2.828s-1.768 1.172-2.828 1.172h-17.333c-1.061 0-2.078-0.421-2.828-1.172s-1.172-1.768-1.172-2.828v-12c0-1.061 0.421-2.078 1.172-2.828s1.768-1.172 2.828-1.172zM6.667 7.999c-0.667 0-1.253 0.227-1.707 0.627l10.373 6.707 10.373-6.707c-0.453-0.4-1.040-0.627-1.707-0.627h-17.333zM15.333 16.946l-11.16-7.24c-0.107 0.293-0.173 0.627-0.173 0.96v12c0 0.707 0.281 1.386 0.781 1.886s1.178 0.781 1.886 0.781h17.333c0.707 0 1.385-0.281 1.886-0.781s0.781-1.178 0.781-1.886v-12c0-0.333-0.067-0.667-0.173-0.96l-11.16 7.24z"></path>
        </symbol>
        <symbol id="icon-facebook" viewBox="0 0 32 32">
            <path
                d="M29.669 1.143h-27.337c-0.657 0-1.189 0.531-1.189 1.189v27.337c0 0.657 0.531 1.189 1.189 1.189h27.337c0.657 0 1.189-0.531 1.189-1.189v-27.337c0-0.657-0.531-1.189-1.189-1.189zM26.237 9.816h-2.373c-1.861 0-2.221 0.884-2.221 2.184v2.864h4.442l-0.579 4.483h-3.863v11.511h-4.632v-11.507h-3.874v-4.487h3.874v-3.306c0-3.837 2.344-5.928 5.768-5.928 1.642 0 3.050 0.123 3.462 0.178v4.008h-0.004z"></path>
        </symbol>
        <symbol id="icon-instagram" viewBox="0 0 32 32">
            <path stroke-linejoin="round" stroke-linecap="round" stroke-miterlimit="4"
                stroke-width="3"
                d="M15.999 21.778c1.532 0 3.002-0.609 4.086-1.692s1.692-2.553 1.692-4.086-0.609-3.002-1.692-4.086c-1.084-1.084-2.553-1.692-4.085-1.692s-3.002 0.609-4.085 1.692c-1.084 1.084-1.692 2.553-1.692 4.086s0.609 3.002 1.692 4.086c1.084 1.083 2.553 1.692 4.085 1.692z"></path>
            <path stroke-linejoin="miter" stroke-linecap="butt" stroke-miterlimit="4"
                stroke-width="3"
                d="M3 21.778v-11.556c0-1.915 0.761-3.752 2.115-5.107s3.191-2.115 5.107-2.115h11.556c1.915 0 3.752 0.761 5.107 2.115s2.115 3.191 2.115 5.107v11.556c0 1.915-0.761 3.752-2.115 5.107s-3.191 2.115-5.107 2.115h-11.556c-1.915 0-3.752-0.761-5.107-2.115s-2.115-3.191-2.115-5.107z"></path>
            <path stroke-linejoin="round" stroke-linecap="round" stroke-miterlimit="4"
                stroke-width="3" d="M23.944 8.071l0.014-0.016"></path>
        </symbol>
        <symbol id="icon-location" viewBox="0 0 32 32">
            <path
                d="M16 27.201l-0.512-0.576c-0.32-0.32-7.808-9.152-7.808-14.464 0-4.608 3.712-8.32 8.32-8.32s8.32 3.712 8.32 8.32c0 5.312-7.488 14.144-7.808 14.528l-0.512 0.512zM16 5.121c-3.904 0-7.040 3.136-7.040 7.040 0 4.096 5.376 11.008 7.040 13.056 1.664-2.048 7.040-8.96 7.040-13.056 0-3.904-3.136-7.040-7.040-7.040z"></path>
            <path
                d="M16 15.361c-1.792 0-3.2-1.408-3.2-3.2s1.408-3.2 3.2-3.2c1.792 0 3.2 1.408 3.2 3.2s-1.408 3.2-3.2 3.2zM16 10.241c-1.088 0-1.92 0.832-1.92 1.92s0.832 1.92 1.92 1.92c1.088 0 1.92-0.832 1.92-1.92s-0.832-1.92-1.92-1.92z"></path>
        </symbol>
        <symbol id="icon-phone" viewBox="0 0 32 32">
            <path
                d="M27.597 20.266l-5.902-2.641c-0.229-0.099-0.479-0.139-0.727-0.118s-0.488 0.105-0.696 0.243c-0.017 0.011-0.032 0.022-0.048 0.035l-3.1 2.643c-0.069 0.042-0.147 0.067-0.228 0.071s-0.161-0.011-0.235-0.045c-2.030-0.98-4.131-3.065-5.111-5.071-0.035-0.073-0.051-0.153-0.047-0.233s0.028-0.159 0.069-0.228l2.65-3.151c0.012-0.015 0.024-0.031 0.035-0.047 0.137-0.208 0.22-0.446 0.242-0.694s-0.018-0.497-0.117-0.726l-2.646-5.893c-0.128-0.298-0.349-0.547-0.63-0.709s-0.608-0.228-0.93-0.189c-1.573 0.207-3.017 0.98-4.062 2.174s-1.619 2.728-1.616 4.314c0 9.65 7.85 17.5 17.5 17.5 1.587 0.003 3.12-0.571 4.314-1.616s1.967-2.489 2.174-4.062c0.039-0.321-0.027-0.646-0.188-0.926s-0.407-0.501-0.704-0.63zM27.5 21.697c-0.176 1.332-0.832 2.554-1.844 3.438s-2.312 1.369-3.656 1.364c-9.098 0-16.5-7.402-16.5-16.5-0.005-1.344 0.48-2.643 1.364-3.656s2.106-1.668 3.438-1.844c0.020-0.001 0.040-0.001 0.060 0 0.099 0.001 0.195 0.031 0.276 0.086s0.145 0.134 0.182 0.225l2.639 5.893c0.031 0.072 0.044 0.15 0.039 0.228s-0.028 0.154-0.068 0.222l-2.649 3.15c-0.012 0.016-0.025 0.031-0.036 0.049-0.141 0.216-0.224 0.464-0.241 0.722s0.032 0.515 0.144 0.747c1.086 2.224 3.326 4.448 5.575 5.534 0.234 0.111 0.493 0.159 0.751 0.14s0.507-0.105 0.722-0.248l0.046-0.035 3.104-2.64c0.066-0.041 0.141-0.065 0.219-0.071s0.156 0.007 0.227 0.037l5.901 2.645c0.1 0.041 0.183 0.114 0.238 0.207s0.078 0.201 0.067 0.308z"></path>
        </symbol>
        <symbol id="icon-time" viewBox="0 0 32 32">
            <path stroke-linejoin="miter" stroke-linecap="butt" stroke-miterlimit="4"
                stroke-width="1.4545"
                d="M16 27.334c6.259 0 11.333-5.074 11.333-11.333s-5.074-11.333-11.333-11.333c-6.259 0-11.333 5.074-11.333 11.333s5.074 11.333 11.333 11.333z"></path>
            <path stroke-linejoin="miter" stroke-linecap="round" stroke-miterlimit="4"
                stroke-width="1.4545"
                d="M22 16.002h-5.667c-0.088 0-0.173-0.035-0.236-0.098s-0.098-0.147-0.098-0.236v-4.333"></path>
        </symbol>
    </defs>
</svg>