<svg aria-hidden="true" style="position: absolute; width: 0; height: 0; overflow: hidden;"
    version="1.1" xmlns="http://www.w3.org/2000/svg" xmlns:xlink="http://www.w3.org/1999/xlink">
    <defs>
        <symbol id="icon-burger" viewBox="0 0 32 32">
            <path d="M32 6.957h-32v-1.391h32v1.391z"></path>
            <path d="M32 16.696h-32v-1.391h32v1.391z"></path>
            <path d="M32 26.435h-32v-1.391h32v1.391z"></path>
        </symbol>
        <symbol id="icon-email" viewBox="0 0 32 32">
            <path
                d="M6.667 6.666h17.333c1.061 0 2.078 0.421 2.828 1.172s1.172 1.768 1.172 2.828v12c0 1.061-0.421 2.078-1.172 2.828s-1.768 1.172-2.828 1.172h-17.333c-1.061 0-2.078-0.421-2.828-1.172s-1.172-1.768-1.172-2.828v-12c0-1.061 0.421-2.078 1.172-2.828s1.768-1.172 2.828-1.172zM6.667 7.999c-0.667 0-1.253 0.227-1.707 0.627l10.373 6.707 10.373-6.707c-0.453-0.4-1.040-0.627-1.707-0.627h-17.333zM15.333 16.946l-11.16-7.24c-0.107 0.293-0.173 0.627-0.173 0.96v12c0 0.707 0.281 1.386 0.781 1.886s1.178 0.781 1.886 0.781h17.333c0.707 0 1.385-0.281 1.886-0.781s0.781-1.178 0.781-1.886v-12c0-0.333-0.067-0.667-0.173-0.96l-11.16 7.24z"></path>
        </symbol>
        <symbol id="icon-instagram" viewBox="0 0 30 32">
            <path stroke-linejoin="round" stroke-linecap="round" stroke-miterlimit="4"
                stroke-width="3"
                d="M14.999 21.778c1.532 0 3.002-0.609 4.086-1.692s1.692-2.553 1.692-4.086-0.609-3.002-1.692-4.086c-1.084-1.084-2.553-1.692-4.085-1.692s-3.002 0.609-4.085 1.692c-1.084 1.084-1.692 2.553-1.692 4.086s0.609 3.002 1.692 4.086c1.084 1.083 2.553 1.692 4.085 1.692z"></path>
            <path stroke-linejoin="miter" stroke-linecap="butt" stroke-miterlimit="4"
                stroke-width="3"
                d="M2 21.778v-11.556c0-1.915 0.761-3.752 2.115-5.107s3.191-2.115 5.107-2.115h11.556c1.915 0 3.752 0.761 5.107 2.115s2.115 3.191 2.115 5.107v11.556c0 1.915-0.761 3.752-2.115 5.107s-3.191 2.115-5.107 2.115h-11.556c-1.915 0-3.752-0.761-5.107-2.115s-2.115-3.191-2.115-5.107z"></path>
            <path stroke-linejoin="round" stroke-linecap="round" stroke-miterlimit="4"
                stroke-width="3" d="M22.944 8.071l0.014-0.016"></path>
        </symbol>
        <symbol id="icon-facebook" viewBox="0 0 30 32">
            <path
                d="M28.526 1.143h-27.337c-0.657 0-1.189 0.531-1.189 1.189v27.337c0 0.657 0.531 1.189 1.189 1.189h27.337c0.657 0 1.189-0.531 1.189-1.189v-27.337c0-0.657-0.531-1.189-1.189-1.189zM25.094 9.816h-2.373c-1.861 0-2.221 0.884-2.221 2.184v2.864h4.442l-0.579 4.483h-3.863v11.511h-4.632v-11.507h-3.874v-4.487h3.874v-3.306c0-3.837 2.344-5.928 5.768-5.928 1.642 0 3.050 0.123 3.462 0.178v4.008h-0.004z"></path>
        </symbol>
        <symbol id="icon-location" viewBox="0 0 32 32">
            <path
                d="M16 27.201l-0.512-0.576c-0.32-0.32-7.808-9.152-7.808-14.464 0-4.608 3.712-8.32 8.32-8.32s8.32 3.712 8.32 8.32c0 5.312-7.488 14.144-7.808 14.528l-0.512 0.512zM16 5.121c-3.904 0-7.040 3.136-7.040 7.040 0 4.096 5.376 11.008 7.040 13.056 1.664-2.048 7.040-8.96 7.040-13.056 0-3.904-3.136-7.040-7.040-7.040z"></path>
            <path
                d="M16 15.361c-1.792 0-3.2-1.408-3.2-3.2s1.408-3.2 3.2-3.2c1.792 0 3.2 1.408 3.2 3.2s-1.408 3.2-3.2 3.2zM16 10.241c-1.088 0-1.92 0.832-1.92 1.92s0.832 1.92 1.92 1.92c1.088 0 1.92-0.832 1.92-1.92s-0.832-1.92-1.92-1.92z"></path>
        </symbol>
        <symbol id="icon-phone" viewBox="0 0 32 32">
            <path
                d="M27.597 20.266l-5.902-2.641c-0.229-0.099-0.479-0.139-0.727-0.118s-0.488 0.105-0.696 0.243c-0.017 0.011-0.032 0.022-0.048 0.035l-3.1 2.643c-0.069 0.042-0.147 0.067-0.228 0.071s-0.161-0.011-0.235-0.045c-2.030-0.98-4.131-3.065-5.111-5.071-0.035-0.073-0.051-0.153-0.047-0.233s0.028-0.159 0.069-0.228l2.65-3.151c0.012-0.015 0.024-0.031 0.035-0.047 0.137-0.208 0.22-0.446 0.242-0.694s-0.018-0.497-0.117-0.726l-2.646-5.893c-0.128-0.298-0.349-0.547-0.63-0.709s-0.608-0.228-0.93-0.189c-1.573 0.207-3.017 0.98-4.062 2.174s-1.619 2.728-1.616 4.314c0 9.65 7.85 17.5 17.5 17.5 1.587 0.003 3.12-0.571 4.314-1.616s1.967-2.489 2.174-4.062c0.039-0.321-0.027-0.646-0.188-0.926s-0.407-0.501-0.704-0.63zM27.5 21.697c-0.176 1.332-0.832 2.554-1.844 3.438s-2.312 1.369-3.656 1.364c-9.098 0-16.5-7.402-16.5-16.5-0.005-1.344 0.48-2.643 1.364-3.656s2.106-1.668 3.438-1.844c0.020-0.001 0.040-0.001 0.060 0 0.099 0.001 0.195 0.031 0.276 0.086s0.145 0.134 0.182 0.225l2.639 5.893c0.031 0.072 0.044 0.15 0.039 0.228s-0.028 0.154-0.068 0.222l-2.649 3.15c-0.012 0.016-0.025 0.031-0.036 0.049-0.141 0.216-0.224 0.464-0.241 0.722s0.032 0.515 0.144 0.747c1.086 2.224 3.326 4.448 5.575 5.534 0.234 0.111 0.493 0.159 0.751 0.14s0.507-0.105 0.722-0.248l0.046-0.035 3.104-2.64c0.066-0.041 0.141-0.065 0.219-0.071s0.156 0.007 0.227 0.037l5.901 2.645c0.1 0.041 0.183 0.114 0.238 0.207s0.078 0.201 0.067 0.308z"></path>
        </symbol>
        <symbol id="icon-time" viewBox="0 0 32 32">
            <path stroke-linejoin="miter" stroke-linecap="butt" stroke-miterlimit="4"
                stroke-width="1.4545"
                d="M16 27.334c6.259 0 11.333-5.074 11.333-11.333s-5.074-11.333-11.333-11.333c-6.259 0-11.333 5.074-11.333 11.333s5.074 11.333 11.333 11.333z"></path>
            <path stroke-linejoin="miter" stroke-linecap="round" stroke-miterlimit="4"
                stroke-width="1.4545"
                d="M22 16.002h-5.667c-0.088 0-0.173-0.035-0.236-0.098s-0.098-0.147-0.098-0.236v-4.333"></path>
        </symbol>
        <symbol id="icon-logo-footer" viewBox="0 0 32 32">
            <path stroke-linejoin="miter" stroke-linecap="butt" stroke-miterlimit="10"
                stroke-width="0.32"
                d="M17.62 25.69c0.029-2.937-0.716-5.326-1.663-5.335s-1.738 2.364-1.767 5.301c-0.029 2.937 0.716 5.326 1.663 5.335s1.738-2.364 1.767-5.301z"></path>
            <path stroke-linejoin="miter" stroke-linecap="butt" stroke-miterlimit="10"
                stroke-width="0.32"
                d="M12.126 25.023c1.612-2.455 2.277-4.867 1.485-5.387s-2.741 1.049-4.353 3.504c-1.612 2.455-2.277 4.867-1.485 5.387s2.741-1.049 4.353-3.504z"></path>
            <path stroke-linejoin="miter" stroke-linecap="butt" stroke-miterlimit="10"
                stroke-width="0.32"
                d="M7.859 21.5c2.684-1.194 4.547-2.863 4.162-3.729s-2.873-0.599-5.556 0.594c-2.684 1.194-4.547 2.863-4.162 3.729s2.873 0.599 5.556-0.594z"></path>
            <path stroke-linejoin="miter" stroke-linecap="butt" stroke-miterlimit="10"
                stroke-width="0.32"
                d="M11.699 15.343c0.144-0.936-2.093-2.057-4.996-2.504s-5.373-0.050-5.517 0.886 2.092 2.057 4.996 2.504c2.903 0.447 5.373 0.050 5.517-0.886z"></path>
            <path stroke-linejoin="miter" stroke-linecap="butt" stroke-miterlimit="10"
                stroke-width="0.32"
                d="M12.741 13.114c0.627-0.71-0.648-2.862-2.849-4.807s-4.494-2.947-5.121-2.237 0.648 2.862 2.849 4.807c2.201 1.945 4.494 2.947 5.121 2.237z"></path>
            <path stroke-linejoin="miter" stroke-linecap="butt" stroke-miterlimit="10"
                stroke-width="0.32"
                d="M14.817 11.81c0.912-0.258 1.002-2.758 0.202-5.584s-2.187-4.908-3.098-4.65c-0.912 0.258-1.002 2.758-0.202 5.585s2.187 4.908 3.098 4.65z"></path>
            <path stroke-linejoin="miter" stroke-linecap="butt" stroke-miterlimit="10"
                stroke-width="0.32"
                d="M20.453 7.247c0.855-2.81 0.814-5.312-0.092-5.587s-2.334 1.778-3.19 4.588c-0.855 2.81-0.814 5.312 0.092 5.587s2.334-1.778 3.19-4.588z"></path>
            <path stroke-linejoin="miter" stroke-linecap="butt" stroke-miterlimit="10"
                stroke-width="0.32"
                d="M24.481 11.044c2.239-1.902 3.556-4.029 2.943-4.751s-2.925 0.235-5.164 2.136c-2.239 1.902-3.556 4.029-2.943 4.751s2.925-0.235 5.164-2.136z"></path>
            <path stroke-linejoin="miter" stroke-linecap="butt" stroke-miterlimit="10"
                stroke-width="0.32"
                d="M25.813 16.417c2.911-0.39 5.17-1.466 5.044-2.405s-2.588-1.384-5.499-0.995c-2.911 0.389-5.17 1.466-5.044 2.405s2.588 1.384 5.499 0.995z"></path>
            <path stroke-linejoin="miter" stroke-linecap="butt" stroke-miterlimit="10"
                stroke-width="0.32"
                d="M29.568 22.362c0.402-0.858-1.428-2.564-4.088-3.81s-5.142-1.562-5.544-0.704c-0.402 0.858 1.428 2.564 4.088 3.81s5.142 1.562 5.544 0.704z"></path>
            <path stroke-linejoin="miter" stroke-linecap="butt" stroke-miterlimit="10"
                stroke-width="0.32"
                d="M23.974 28.691c0.802-0.504 0.185-2.929-1.379-5.415s-3.481-4.094-4.283-3.589-0.185 2.929 1.379 5.415c1.563 2.487 3.481 4.094 4.283 3.589z"></path>
        </symbol>
        <symbol id="icon-ellipse1" viewBox="0 0 101 32">
            <path fill="#ede9e4" style="fill: var(--color1, #ede9e4)" opacity="0.9"
                d="M100.38 16.978c1.088 5.934-0.809 8.43-12.86 11.812-30.406 0.302-33.274 4.811-50.201 2.332-15.625-2.288-24.906 2.734-34.358-2.353-7.373-3.968 1.458-12.995 2.23-17.262 0.761-4.209-3.86-8.554 5.557-10.717 8.628-1.982 17.898 0.85 29.123 1.037 13.524 0.226 42.272-3.544 53.149-0.003 12.538 4.081 6.355 9.672 7.36 15.153z"></path>
        </symbol>
    </defs>
</svg>