<svg width="25" height="25" viewBox="0 0 25 25" fill="none" xmlns="http://www.w3.org/2000/svg">
    <path fill-rule="evenodd" clip-rule="evenodd"
        d="M0.148804 6.9578C0.148804 3.19707 3.19686 0.148438 6.95765 0.148438H18.0422C21.803 0.148438 24.8511 3.19707 24.8511 6.9578V18.0414C24.8511 21.8021 21.8025 24.8507 18.0417 24.8507H6.95816C3.1974 24.8507 0.148804 21.8021 0.148804 18.0414V6.9578ZM6.95765 0.815104C3.56511 0.815104 0.81547 3.56519 0.81547 6.9578V18.0414C0.81547 21.4339 3.56559 24.1841 6.95816 24.1841H18.0417C21.4343 24.1841 24.1844 21.4339 24.1844 18.0414V6.9578C24.1844 3.56519 21.4348 0.815104 18.0422 0.815104H6.95765Z"
        fill="#E3DEDB" />
    <path fill-rule="evenodd" clip-rule="evenodd"
        d="M12.5 7.0319C9.47985 7.0319 7.03153 9.48022 7.03153 12.5004C7.03153 15.5205 9.47985 17.9688 12.5 17.9688C15.5202 17.9688 17.9685 15.5205 17.9685 12.5004C17.9685 9.48022 15.5202 7.0319 12.5 7.0319ZM6.36487 12.5004C6.36487 9.11203 9.11166 6.36523 12.5 6.36523C15.8884 6.36523 18.6351 9.11203 18.6351 12.5004C18.6351 15.8887 15.8884 18.6355 12.5 18.6355C9.11166 18.6355 6.36487 15.8887 6.36487 12.5004Z"
        fill="#E3DEDB" />
    <path
        d="M19.5449 6.69908C20.2314 6.69908 20.788 6.14253 20.788 5.45599C20.788 4.76944 20.2314 4.21289 19.5449 4.21289C18.8583 4.21289 18.3018 4.76944 18.3018 5.45599C18.3018 6.14253 18.8583 6.69908 19.5449 6.69908Z"
        fill="#E3DEDB" />
</svg>