<svg width="15" height="16" viewBox="0 0 15 16" fill="none" xmlns="http://www.w3.org/2000/svg">
<path d="M7.49973 10.8891C8.26591 10.8891 9.00071 10.5847 9.54248 10.043C10.0843 9.5012 10.3886 8.7664 10.3886 8.00022C10.3886 7.23404 10.0843 6.49924 9.54248 5.95746C9.00071 5.41569 8.26591 5.11133 7.49973 5.11133C6.73355 5.11133 5.99875 5.41569 5.45698 5.95746C4.9152 6.49924 4.61084 7.23404 4.61084 8.00022C4.61084 8.7664 4.9152 9.5012 5.45698 10.043C5.99875 10.5847 6.73355 10.8891 7.49973 10.8891Z" stroke="#E3DEDB" stroke-width="1.5" stroke-linecap="round" stroke-linejoin="round"/>
<path d="M1 10.8889V5.11111C1 4.15338 1.38046 3.23488 2.05767 2.55767C2.73488 1.88046 3.65338 1.5 4.61111 1.5H10.3889C11.3466 1.5 12.2651 1.88046 12.9423 2.55767C13.6195 3.23488 14 4.15338 14 5.11111V10.8889C14 11.8466 13.6195 12.7651 12.9423 13.4423C12.2651 14.1195 11.3466 14.5 10.3889 14.5H4.61111C3.65338 14.5 2.73488 14.1195 2.05767 13.4423C1.38046 12.7651 1 11.8466 1 10.8889Z" stroke="#E3DEDB" stroke-width="1.5"/>
<path d="M11.4719 4.03529L11.4789 4.02734" stroke="#E3DEDB" stroke-width="1.5" stroke-linecap="round" stroke-linejoin="round"/>
</svg>
