<svg width="4096" height="3464" viewBox="0 0 4096 3464" fill="none" xmlns="http://www.w3.org/2000/svg">
<rect width="4096" height="3464" fill="#FFFBF9"/>
<path d="M2083 2671C2084.21 2671.09 2084.21 2671.09 2085.45 2671.17C2102.24 2672.49 2117.44 2678.19 2132.56 2685.25C2134.02 2685.92 2135.47 2686.59 2136.92 2687.26C2146.55 2691.72 2155.95 2696.45 2165 2702C2166.71 2703.04 2168.42 2704.08 2170.12 2705.13C2170.89 2705.59 2171.66 2706.06 2172.45 2706.54C2175.55 2708.31 2178.73 2709.88 2181.94 2711.44C2187.24 2714.03 2192.18 2716.95 2197.11 2720.2C2200.37 2722.23 2203.72 2724.04 2207.12 2725.81C2212.64 2728.7 2218.03 2731.74 2223.37 2734.94C2229 2738.29 2234.69 2741.48 2240.5 2744.5C2246.49 2747.62 2252.37 2750.89 2258.19 2754.31C2259.23 2754.93 2259.23 2754.93 2260.29 2755.55C2263.35 2757.37 2266.33 2759.22 2269.29 2761.21C2271.78 2762.86 2274.21 2763.98 2276.98 2765.1C2279.41 2766.18 2281.72 2767.44 2284.05 2768.73C2285.02 2769.26 2286 2769.8 2287 2770.35C2288.48 2771.17 2288.48 2771.17 2290 2772C2291.83 2773 2293.67 2774 2295.5 2775C2306.5 2781 2306.5 2781 2309.24 2782.49C2311.11 2783.52 2312.99 2784.54 2314.87 2785.56C2320.15 2788.43 2325.4 2791.34 2330.62 2794.31C2336.3 2797.53 2342.03 2800.61 2347.81 2803.63C2353.53 2806.61 2359.01 2809.78 2364.41 2813.33C2367.16 2815.1 2369.97 2816.71 2372.81 2818.31C2381.59 2823.38 2390.36 2829.33 2398 2836C2398 2836.66 2398 2837.32 2398 2838C2398.58 2838.25 2399.15 2838.49 2399.75 2838.74C2407.78 2843.23 2412.59 2852.16 2415.08 2860.7C2417.72 2871.68 2417.17 2883.91 2412 2894C2411.42 2895.19 2411.42 2895.19 2410.82 2896.39C2401.75 2913 2386.46 2925.34 2372 2937C2370.19 2938.5 2368.37 2940 2366.56 2941.5C2362.8 2944.58 2358.97 2947.54 2355.06 2950.44C2350.85 2953.56 2346.8 2956.8 2342.81 2960.19C2339.49 2962.99 2336.23 2965.61 2332.56 2967.94C2328.57 2970.48 2325.07 2973.41 2321.5 2976.5C2317.26 2980.16 2313.02 2983.42 2308.29 2986.43C2304.92 2988.74 2301.85 2991.4 2298.73 2994.04C2294.5 2997.62 2290.15 3001.02 2285.74 3004.37C2281.39 3007.68 2277.14 3011.11 2272.93 3014.6C2271 3016 2271 3016 2269 3016C2269 3016.66 2269 3017.32 2269 3018C2267.51 3019.19 2265.95 3020.3 2264.37 3021.38C2259.66 3024.71 2255.28 3028.26 2250.94 3032.06C2246.26 3036.15 2241.52 3039.83 2236.36 3043.3C2232.84 3045.84 2229.74 3048.81 2226.55 3051.75C2224.03 3053.98 2221.43 3055.93 2218.69 3057.88C2214.48 3060.86 2210.53 3064.02 2206.62 3067.38C2201.78 3071.54 2196.82 3075.51 2191.73 3079.38C2188.32 3081.97 2184.98 3084.64 2181.69 3087.38C2176.52 3091.65 2171.16 3095.63 2165.78 3099.62C2161.31 3102.95 2157.14 3106.47 2153.03 3110.24C2144.07 3118 2144.07 3118 2140 3118C2140 3118.66 2140 3119.32 2140 3120C2137.77 3121.75 2135.53 3123.35 2133.19 3124.94C2132.12 3125.66 2132.12 3125.66 2131.04 3126.4C2122.62 3132.05 2113.86 3137.08 2105 3142C2103.55 3142.82 2103.55 3142.82 2102.07 3143.66C2089.43 3150.44 2076.98 3151.68 2062.93 3151.58C2060.2 3151.56 2057.47 3151.6 2054.74 3151.64C2036.7 3151.72 2022.42 3147.1 2007 3138C2005.96 3137.41 2004.92 3136.81 2003.84 3136.2C1993.7 3130.22 1984.38 3123.08 1975 3116C1974.36 3115.52 1973.73 3115.04 1973.07 3114.55C1966.18 3109.36 1959.51 3103.94 1952.91 3098.37C1950.13 3096.11 1947.3 3094.01 1944.37 3091.94C1940.64 3089.28 1937.24 3086.48 1933.87 3083.38C1930.88 3080.61 1927.94 3078.19 1924.5 3076C1920.13 3073.22 1916.51 3069.91 1912.71 3066.41C1909.35 3063.43 1905.82 3060.72 1902.24 3058.02C1897.7 3054.57 1893.28 3050.99 1888.87 3047.38C1883.59 3043.04 1878.21 3038.92 1872.64 3034.96C1868.6 3031.96 1864.81 3028.68 1860.97 3025.44C1857.36 3022.47 1853.6 3019.78 1849.79 3017.07C1846.69 3014.77 1843.75 3012.32 1840.81 3009.81C1837.41 3006.92 1834.08 3004.29 1830.25 3002C1829.18 3001.34 1828.1 3000.68 1827 3000C1827 2999.34 1827 2998.68 1827 2998C1826.11 2997.58 1826.11 2997.58 1825.21 2997.15C1823.19 2996.1 1821.48 2994.98 1819.67 2993.6C1819.04 2993.13 1818.42 2992.65 1817.77 2992.17C1816.77 2991.4 1816.77 2991.4 1815.75 2990.63C1814.32 2989.54 1812.89 2988.46 1811.46 2987.38C1810.36 2986.54 1810.36 2986.54 1809.24 2985.69C1807.03 2984.02 1804.82 2982.37 1802.6 2980.72C1801.89 2980.19 1801.18 2979.66 1800.45 2979.11C1799.1 2978.11 1797.76 2977.1 1796.41 2976.1C1793.5 2973.92 1790.64 2971.72 1787.86 2969.38C1785.27 2967.22 1782.63 2965.26 1779.87 2963.31C1775.72 2960.33 1771.77 2957.19 1767.87 2953.88C1764.48 2951 1761.13 2948.32 1757.37 2945.94C1753 2943.14 1749.33 2939.8 1745.53 2936.28C1743.13 2934.12 1740.67 2932.11 1738.12 2930.13C1723.06 2918.15 1706.01 2902.77 1703.25 2882.68C1701.99 2869.06 1704.47 2858.83 1713 2848C1713.5 2847.28 1713.99 2846.56 1714.51 2845.81C1717.42 2841.61 1720.42 2838.63 1724.6 2835.7C1727.05 2833.96 1729.42 2832.13 1731.79 2830.27C1737.96 2825.45 1744.2 2821.14 1751.03 2817.3C1754.16 2815.51 1757.23 2813.65 1760.29 2811.76C1761.25 2811.17 1762.21 2810.57 1763.2 2809.97C1765.18 2808.75 1767.14 2807.53 1769.11 2806.31C1774.04 2803.28 1778.97 2800.46 1784.18 2797.93C1787.77 2796.18 1791.11 2794.36 1794.39 2792.09C1800.21 2788.06 1806.49 2784.9 1812.75 2781.63C1821.07 2777.27 1829.19 2772.77 1837.13 2767.74C1839.84 2766.1 1842.57 2764.67 1845.44 2763.31C1852.51 2759.89 1859.19 2755.82 1865.91 2751.76C1871.05 2748.67 1876.23 2745.83 1881.62 2743.2C1885.39 2741.3 1889 2739.16 1892.62 2737C1893.32 2736.59 1894.02 2736.18 1894.74 2735.75C1898.26 2733.67 1901.74 2731.54 1905.2 2729.35C1908.14 2727.5 1911.1 2725.9 1914.25 2724.44C1919.96 2721.65 1925.33 2718.44 1930.75 2715.13C1938.01 2710.7 1945.33 2706.68 1952.98 2702.98C1956.58 2701.23 1960.09 2699.35 1963.61 2697.45C2002.91 2676.24 2038.26 2667.85 2083 2671Z" fill="#A8A285"/>
<path d="M2059.88 321.563C2060.58 321.566 2061.28 321.57 2062 321.573C2072.52 321.646 2082.07 322.26 2092 326C2092.69 326.247 2093.37 326.494 2094.08 326.748C2107.53 331.635 2119 338.563 2130.47 347.141C2132.25 348.446 2134.06 349.7 2135.91 350.914C2139.26 353.175 2142.4 355.606 2145.56 358.125C2146.8 359.105 2148.04 360.084 2149.27 361.063C2149.89 361.554 2150.52 362.045 2151.16 362.551C2153.98 364.769 2156.83 366.947 2159.69 369.125C2164.73 372.982 2169.67 376.95 2174.56 380.993C2178.1 383.905 2181.67 386.761 2185.33 389.508C2185.9 389.937 2186.47 390.367 2187.06 390.809C2188.25 391.699 2189.43 392.584 2190.62 393.465C2192.12 394.597 2193.56 395.794 2195 397C2195 397.66 2195 398.32 2195 399C2195.55 399.249 2196.09 399.498 2196.66 399.754C2199.47 401.252 2201.93 403.044 2204.5 404.938C2205.44 405.627 2206.38 406.317 2207.34 407.028C2208.22 407.679 2209.1 408.33 2210 409C2211.16 409.807 2211.16 409.807 2212.34 410.629C2212.89 411.082 2213.44 411.534 2214 412C2214 412.66 2214 413.32 2214 414C2214.54 414.241 2215.08 414.482 2215.64 414.731C2218.6 416.321 2221.1 418.256 2223.75 420.313C2224.59 420.967 2224.59 420.967 2225.46 421.634C2230.65 425.68 2235.74 429.857 2240.83 434.032C2246.23 438.426 2251.75 442.612 2257.34 446.753C2262.16 450.336 2266.81 454.086 2271.43 457.926C2274.04 460.03 2276.71 461.992 2279.44 463.938C2283.49 466.832 2287.34 469.902 2291.13 473.125C2295.19 476.564 2299.29 479.603 2303.76 482.473C2306.27 484.182 2308.55 486.054 2310.88 488C2315.96 492.235 2321.22 496.162 2326.56 500.063C2332.39 504.32 2338.13 508.629 2343.73 513.192C2347.25 515.994 2350.9 518.612 2354.56 521.239C2355.36 521.82 2356.17 522.401 2357 523C2357.77 523.53 2358.53 524.06 2359.32 524.606C2360.15 525.296 2360.15 525.296 2361 526C2361 526.66 2361 527.32 2361 528C2361.56 528.263 2362.12 528.526 2362.7 528.797C2372.21 533.77 2379.88 541.42 2387.56 548.758C2390.02 551.103 2392.54 553.307 2395.19 555.438C2407.44 566.019 2415.74 579.234 2417.22 595.434C2417.7 608.363 2413.36 619.242 2404.7 628.676C2397.4 636.342 2390.03 642.472 2381 648C2379.39 649.135 2377.78 650.28 2376.19 651.438C2366.47 658.279 2356 664.036 2345.68 669.895C2341.53 672.259 2337.42 674.694 2333.31 677.125C2326.95 680.888 2320.52 684.503 2314 688C2308.97 690.748 2304 693.585 2299.06 696.5C2295.53 698.573 2292 700.537 2288.31 702.313C2283.66 704.578 2279.25 707.169 2274.81 709.813C2269.01 713.272 2263.16 716.547 2257.17 719.675C2249.89 723.518 2242.82 727.723 2235.74 731.902C2230.11 735.216 2224.44 738.424 2218.69 741.531C2214.26 743.952 2209.88 746.48 2205.5 749C2199.3 752.555 2193.1 756.09 2186.81 759.473C2184.61 760.669 2182.43 761.886 2180.26 763.121C2168.09 770.015 2155.64 776.297 2143.09 782.466C2141.05 783.478 2139.03 784.509 2137.01 785.56C2129.74 789.33 2122.41 792.165 2114.63 794.688C2113.44 795.077 2112.26 795.465 2111.04 795.866C2103.1 798.431 2095.26 800.709 2087 802C2085.97 802.173 2084.94 802.346 2083.88 802.524C2041.35 807.749 2002.18 798.515 1965.39 776.93C1962 775.002 1958.57 773.268 1955.06 771.563C1949.41 768.785 1944.04 765.695 1938.67 762.405C1934.4 759.8 1930.06 757.381 1925.63 755.063C1920.19 752.221 1914.89 749.206 1909.63 746.063C1903.15 742.2 1896.59 738.579 1889.88 735.131C1885.81 733.022 1881.92 730.734 1878.05 728.275C1874.5 726.072 1870.85 724.075 1867.19 722.063C1866.39 721.624 1865.6 721.185 1864.78 720.733C1860.68 718.465 1856.57 716.223 1852.44 714C1848.57 711.904 1844.78 709.688 1841 707.43C1834.13 703.329 1827.22 699.533 1820.02 696.04C1814.28 693.222 1808.84 690.006 1803.36 686.714C1798.63 683.893 1793.83 681.343 1788.88 678.938C1782.86 676.014 1777.13 672.782 1771.43 669.281C1767.56 666.912 1763.65 664.72 1759.63 662.625C1751.42 658.274 1743.72 653.156 1736 648C1735 647.335 1734 646.67 1732.98 645.985C1725.47 640.855 1718.46 635.337 1713 628C1713 627.34 1713 626.68 1713 626C1712.34 626 1711.68 626 1711 626C1710.2 624.506 1709.41 623.005 1708.63 621.5C1707.96 620.247 1707.96 620.247 1707.29 618.969C1704.51 612.563 1703.63 606.53 1703.69 599.625C1703.69 598.882 1703.7 598.139 1703.7 597.373C1703.93 586.804 1707.28 576.51 1715 569C1715.41 568.278 1715.83 567.557 1716.25 566.813C1720.4 560.144 1725.69 555.252 1731.95 550.578C1734.53 548.592 1736.72 546.333 1739 544C1740.43 542.676 1741.87 541.365 1743.31 540.063C1744.01 539.435 1744.71 538.807 1745.43 538.161C1748.17 535.855 1751.02 533.729 1753.9 531.591C1757.28 529.032 1760.54 526.324 1763.81 523.625C1769.31 519.121 1774.86 514.788 1780.67 510.684C1782.38 509.446 1784.05 508.134 1785.68 506.786C1788 505 1788 505 1790 505C1790.33 504.01 1790.66 503.02 1791 502C1792.86 500.594 1794.79 499.274 1796.75 498C1801.69 494.714 1806.27 491.207 1810.75 487.313C1814.97 483.645 1819.25 480.379 1823.97 477.375C1826.78 475.47 1829.22 473.231 1831.73 470.961C1834.93 468.196 1838.3 465.67 1841.66 463.115C1846.18 459.664 1850.6 456.102 1855 452.5C1859.84 448.542 1864.71 444.652 1869.69 440.875C1874.78 436.999 1879.69 432.957 1884.51 428.754C1886.91 426.68 1889.31 424.796 1891.96 423.043C1895.48 420.675 1898.57 417.997 1901.75 415.188C1906.53 411.016 1911.38 407.244 1916.65 403.7C1920.15 401.172 1923.22 398.228 1926.39 395.305C1929.98 392.136 1933.81 389.353 1937.66 386.52C1941.56 383.617 1945.31 380.525 1949.06 377.438C1954.37 373.083 1959.75 368.938 1965.36 364.965C1968.37 362.726 1971.21 360.316 1974.06 357.875C1978.42 354.192 1982.77 351.157 1987.72 348.348C1989.86 347.084 1991.74 345.723 1993.69 344.188C2002.26 337.636 2011.63 332.316 2021.56 328.125C2022.2 327.852 2022.83 327.578 2023.49 327.296C2035.24 322.562 2047.31 321.445 2059.88 321.563Z" fill="#A8A285"/>
<path d="M922.376 1380.81C923.188 1380.8 924 1380.79 924.837 1380.78C936.822 1380.75 945.956 1384.82 954.563 1393.19C965.358 1404.55 975.227 1417.27 982.466 1431.2C984.196 1434.36 986.136 1437.31 988.126 1440.31C992.696 1447.25 996.614 1454.5 1000.54 1461.81C1003.54 1467.38 1006.64 1472.85 1009.94 1478.25C1012.73 1482.82 1015.26 1487.42 1017.57 1492.24C1019.48 1495.94 1021.62 1499.49 1023.75 1503.06C1027.17 1508.8 1030.42 1514.58 1033.5 1520.5C1036.88 1527 1040.5 1533.32 1044.27 1539.62C1047.22 1544.58 1049.96 1549.63 1052.63 1554.75C1055.17 1559.64 1057.8 1564.4 1060.75 1569.06C1065.27 1576.24 1069.21 1583.72 1073.21 1591.19C1076.69 1597.66 1080.34 1603.9 1084.26 1610.11C1086.75 1614.25 1088.83 1618.57 1090.94 1622.91C1094 1629.09 1097.39 1635.08 1100.74 1641.1C1103.4 1645.91 1105.86 1650.72 1108.04 1655.77C1109.05 1658.11 1110.11 1660.42 1111.18 1662.73C1115.77 1672.67 1119.87 1682.5 1123 1693C1123.49 1694.6 1123.49 1694.6 1123.99 1696.23C1127.59 1709.68 1127.37 1723.93 1127.31 1737.75C1127.31 1738.67 1127.31 1739.6 1127.31 1740.55C1127.19 1767.39 1127.19 1767.39 1124 1780C1123.82 1780.73 1123.63 1781.46 1123.45 1782.21C1120.09 1794.67 1114.21 1806.24 1108.63 1817.81C1108.27 1818.55 1107.91 1819.29 1107.55 1820.05C1103.43 1828.55 1099.06 1836.78 1094.12 1844.83C1091.56 1849 1089.32 1853.23 1087.19 1857.64C1084.93 1862.12 1082.28 1866.39 1079.69 1870.69C1075.57 1877.57 1071.59 1884.48 1067.88 1891.6C1065.45 1896.24 1062.82 1900.75 1060.13 1905.25C1055.99 1912.17 1052.17 1919.23 1048.49 1926.41C1045.89 1931.44 1043.06 1936.24 1040 1941C1035.93 1947.45 1032.37 1954.07 1029.07 1960.94C1027.25 1964.68 1025.27 1968.26 1023.11 1971.82C1019.91 1977.06 1017.1 1982.47 1014.31 1987.94C1009.99 1996.34 1005.45 2004.56 1000.65 2012.71C998.464 2016.44 996.357 2020.15 994.501 2024.06C991.818 2029.65 988.488 2034.85 985.222 2040.11C982.666 2044.24 980.205 2048.38 977.885 2052.64C973.7 2060.3 968.753 2066.49 963.001 2073C962.394 2073.75 961.786 2074.5 961.161 2075.28C953.741 2084.37 944.022 2090.25 932.563 2092.75C914.185 2094.04 899.958 2089 886.001 2077C884.924 2075.84 883.881 2074.66 882.876 2073.44C879.032 2068.92 874.817 2064.83 870.552 2060.71C867.972 2057.97 866.064 2055.14 864.001 2052C862.491 2050.3 860.947 2048.64 859.376 2047C855.06 2042.34 851.375 2037.48 847.754 2032.27C844.239 2027.24 840.406 2022.6 836.434 2017.93C833.23 2014.07 830.251 2010.08 827.27 2006.05C824.54 2002.38 821.746 1998.76 818.947 1995.15C816.595 1992.1 814.273 1989.03 811.981 1985.94C807.119 1979.38 802.266 1973.01 796.723 1967C794.956 1964.95 793.517 1962.85 792.063 1960.56C789.23 1956.13 785.845 1952.44 782.282 1948.59C780.046 1946.05 778.08 1943.45 776.126 1940.69C773.143 1936.48 769.985 1932.53 766.626 1928.63C762.459 1923.78 758.495 1918.82 754.63 1913.73C751.281 1909.33 747.793 1905.06 744.27 1900.8C741.846 1897.81 739.513 1894.76 737.188 1891.69C733.015 1886.18 728.595 1880.93 724.023 1875.76C721.296 1872.64 719.121 1869.57 717.001 1866C715.619 1864.41 714.2 1862.85 712.751 1861.31C709.036 1857.26 705.879 1853.1 702.802 1848.55C700.184 1844.84 697.272 1841.39 694.376 1837.89C685.702 1827.32 677.788 1816.23 670.001 1805C669.414 1804.16 668.828 1803.31 668.223 1802.45C666.776 1800.32 665.382 1798.17 664.001 1796C663.305 1794.93 662.609 1793.86 661.891 1792.76C657.595 1786.01 654 1779.2 651.063 1771.75C650.781 1771.04 650.499 1770.33 650.208 1769.61C646.223 1759 645.639 1748.5 645.688 1737.25C645.69 1736.59 645.692 1735.92 645.694 1735.24C645.839 1703.84 660.74 1679.12 679.626 1655.06C681.867 1652.17 684.006 1649.23 686.126 1646.25C689.194 1641.98 692.524 1638.12 696.067 1634.25C698.064 1631.93 699.781 1629.53 701.501 1627C704.335 1622.83 707.457 1619.17 710.848 1615.46C713.275 1612.69 715.524 1609.8 717.751 1606.88C721.63 1601.78 725.535 1596.71 729.501 1591.69C730.017 1591.02 730.534 1590.36 731.066 1589.67C732.331 1588.08 733.661 1586.53 735.001 1585C735.661 1585 736.321 1585 737.001 1585C737.222 1584.32 737.444 1583.63 737.673 1582.93C739.368 1579.19 741.679 1576.3 744.251 1573.13C744.749 1572.5 745.247 1571.88 745.76 1571.23C748.611 1567.67 751.539 1564.19 754.552 1560.76C756.443 1558.46 758.147 1556.05 759.876 1553.63C762.443 1550.04 765.087 1546.69 768.063 1543.44C770.689 1540.56 773.005 1537.66 775.188 1534.44C778.321 1529.82 781.767 1525.55 785.313 1521.25C789.945 1515.63 794.303 1509.91 798.473 1503.94C801.673 1499.38 805.143 1495.12 808.712 1490.86C811.786 1487.02 814.582 1483.01 817.402 1478.99C820.196 1475.04 823.175 1471.42 826.43 1467.84C828.101 1465.88 829.48 1463.85 830.876 1461.69C833.742 1457.26 837.002 1453.28 840.376 1449.22C843.545 1445.38 846.548 1441.4 849.563 1437.44C857.704 1426.76 857.704 1426.76 860.688 1422.94C861.591 1421.78 861.591 1421.78 862.512 1420.59C863.004 1420.07 863.495 1419.54 864.001 1419C864.661 1419 865.321 1419 866.001 1419C866.211 1418.31 866.421 1417.62 866.637 1416.91C868.426 1413.09 870.927 1410.47 873.813 1407.44C874.595 1406.59 874.595 1406.59 875.393 1405.73C878.405 1402.51 881.508 1399.7 885.001 1397C885.764 1396.22 886.527 1395.43 887.313 1394.63C897.715 1384.46 907.997 1380.82 922.376 1380.81Z" fill="#A8A285"/>
<path d="M3198.06 1380.75C3198.91 1380.74 3199.76 1380.73 3200.63 1380.73C3215.5 1380.77 3225.88 1387.37 3236.27 1397.41C3238.92 1400 3238.92 1400 3241.66 1402.09C3243.91 1403.93 3245.43 1405.65 3247.13 1408C3250.03 1411.87 3253.19 1415.42 3256.5 1418.94C3260.55 1423.26 3264.04 1427.72 3267.33 1432.64C3269.07 1435.1 3270.96 1437.28 3273 1439.5C3276.38 1443.2 3279.21 1447.06 3282.02 1451.2C3285.72 1456.43 3289.77 1461.41 3293.76 1466.43C3297.52 1471.18 3301.23 1475.96 3304.85 1480.82C3311.83 1490.31 3311.83 1490.31 3319.5 1499.23C3321 1501 3321 1501 3322.86 1503.82C3325.12 1507.18 3327.65 1510.21 3330.31 1513.25C3334.31 1517.88 3337.9 1522.62 3341.34 1527.68C3343.62 1530.86 3346.22 1533.66 3348.85 1536.55C3351.71 1539.81 3354.32 1543.25 3356.94 1546.71C3360.9 1551.92 3365.03 1556.98 3369.17 1562.04C3372.62 1566.26 3375.97 1570.53 3379.25 1574.88C3382.26 1578.84 3385.37 1582.59 3388.75 1586.25C3392.09 1589.87 3394.78 1593.57 3397.41 1597.72C3399.23 1600.34 3401.28 1602.6 3403.44 1604.94C3415 1617.46 3415 1617.46 3415 1622C3415.59 1622.25 3416.18 1622.49 3416.79 1622.74C3419.38 1624.22 3420.57 1625.71 3422.32 1628.11C3423.24 1629.36 3423.24 1629.36 3424.18 1630.63C3424.82 1631.51 3425.46 1632.4 3426.13 1633.31C3427.47 1635.14 3428.82 1636.96 3430.16 1638.79C3430.82 1639.68 3431.47 1640.57 3432.15 1641.49C3434.57 1644.78 3437.06 1648.02 3439.56 1651.25C3440.34 1652.26 3441.13 1653.28 3441.93 1654.32C3443.18 1655.94 3444.44 1657.56 3445.7 1659.18C3449.83 1664.56 3453.41 1670.24 3457 1676C3457.68 1677.05 3458.35 1678.09 3459.05 1679.17C3469.8 1696.07 3475.19 1713.38 3475.24 1733.36C3475.25 1735.47 3475.28 1737.58 3475.31 1739.69C3475.57 1771.73 3458.73 1796.74 3439.58 1820.99C3438.02 1822.97 3436.51 1824.98 3435 1827C3429.53 1834.31 3423.89 1841.41 3417.91 1848.31C3414.98 1851.72 3412.5 1855.25 3410 1859C3408.32 1861.05 3406.62 1863.06 3404.88 1865.06C3400.63 1870.01 3396.58 1875.06 3392.64 1880.25C3389.2 1884.77 3385.63 1889.18 3382.01 1893.56C3378.74 1897.53 3375.56 1901.56 3372.45 1905.66C3369.17 1909.97 3365.89 1914.22 3362.25 1918.25C3359.91 1920.85 3357.95 1923.49 3356.06 1926.44C3354.01 1929.63 3351.82 1932.4 3349.25 1935.19C3345.88 1938.87 3342.98 1942.72 3340.13 1946.81C3336.93 1951.39 3333.62 1955.75 3330 1960C3325.93 1964.78 3322.28 1969.72 3318.68 1974.85C3315.38 1979.54 3311.82 1983.96 3308.14 1988.37C3305.33 1991.82 3302.76 1995.43 3300.16 1999.05C3297.23 2003.05 3294.15 2006.93 3291.06 2010.81C3288.33 2014.27 3285.69 2017.78 3283.13 2021.38C3279.27 2026.74 3275.12 2031.83 3270.93 2036.94C3267.4 2041.25 3263.94 2045.62 3260.56 2050.06C3255.68 2056.45 3250.68 2062.32 3245 2068C3244.54 2068.57 3244.07 2069.14 3243.59 2069.73C3234.03 2081.48 3220.31 2091.15 3205 2093C3194 2094.01 3182.82 2092.01 3174 2085C3173.34 2084.54 3172.68 2084.08 3172 2083.61C3154.82 2071.3 3142.87 2049.85 3132.96 2031.56C3131.18 2028.29 3129.25 2025.14 3127.25 2022C3122.75 2014.8 3118.8 2007.3 3114.79 1999.81C3111.29 1993.31 3107.62 1987.01 3103.67 1980.76C3102.05 1978.08 3100.67 1975.39 3099.31 1972.56C3095.89 1965.49 3091.82 1958.81 3087.76 1952.09C3085.19 1947.81 3082.72 1943.55 3080.53 1939.06C3077.17 1932.18 3073.18 1925.67 3069.26 1919.1C3065.69 1913.06 3062.4 1906.96 3059.35 1900.64C3057.66 1897.34 3055.66 1894.36 3053.56 1891.32C3048.32 1883.52 3044 1875.23 3039.93 1866.78C3038.34 1863.51 3036.66 1860.39 3034.68 1857.33C3031.13 1851.76 3028.2 1845.87 3025.19 1840C3024.56 1838.78 3023.94 1837.57 3023.31 1836.35C3022.09 1833.97 3020.86 1831.58 3019.64 1829.2C3018.29 1826.56 3016.93 1823.93 3015.56 1821.31C3010.64 1811.81 3006.64 1802.06 3003 1792C3002.64 1791 3002.64 1791 3002.26 1789.97C2997.12 1775.68 2993.88 1761.3 2993.8 1746.1C2993.79 1745.27 2993.79 1744.43 2993.78 1743.57C2993.77 1741.82 2993.76 1740.06 2993.76 1738.3C2993.75 1735.67 2993.72 1733.04 2993.69 1730.41C2993.49 1698.09 3004.53 1670.3 3019.8 1642.23C3020.94 1640.12 3022.04 1638 3023.14 1635.88C3028.11 1626.28 3033.46 1616.94 3038.95 1607.64C3042.26 1602.03 3045.45 1596.39 3048.55 1590.67C3050.88 1586.38 3053.32 1582.16 3055.75 1577.94C3060.03 1570.47 3064.26 1562.98 3068.43 1555.45C3071.05 1550.7 3073.71 1545.97 3076.38 1541.25C3080.56 1533.84 3084.63 1526.37 3088.66 1518.89C3091.07 1514.44 3093.54 1510.06 3096.16 1505.74C3098.38 1502.09 3100.36 1498.42 3102.19 1494.56C3105.5 1487.82 3109.22 1481.37 3113.02 1474.89C3115.5 1470.65 3117.86 1466.42 3120 1462C3122.95 1455.92 3126.34 1450.12 3129.76 1444.29C3132.42 1439.73 3135.03 1435.15 3137.57 1430.52C3141.06 1424.2 3144.74 1418.27 3149.12 1412.5C3150.94 1410.08 3152.59 1407.6 3154.25 1405.06C3162.1 1393.84 3171.83 1384.28 3185.52 1381.4C3189.7 1380.73 3193.83 1380.71 3198.06 1380.75Z" fill="#A8A285"/>
<path d="M2657.12 664.5C2657.9 664.503 2658.68 664.506 2659.48 664.509C2678.53 664.64 2697.2 666.936 2716.06 669.47C2720.58 670.078 2725.11 670.681 2729.64 671.284C2731.39 671.518 2733.15 671.751 2734.9 671.985C2738.56 672.472 2742.22 672.959 2745.87 673.445C2747.73 673.692 2749.6 673.94 2751.46 674.188C2752.85 674.373 2752.85 674.373 2754.27 674.562C2759.81 675.3 2765.34 676.046 2770.87 676.8C2774.41 677.281 2777.95 677.757 2781.48 678.232C2783.12 678.454 2784.76 678.677 2786.4 678.903C2795.74 680.191 2805.07 681.216 2814.48 681.956C2827.81 683.008 2841.08 684.542 2854.36 686.117C2856.93 686.419 2859.51 686.72 2862.08 687.021C2868.12 687.729 2874.16 688.44 2880.19 689.153C2888.94 690.185 2897.68 691.21 2906.42 692.236C2912.9 692.997 2919.38 693.759 2925.87 694.523C2936.61 695.788 2947.35 697.049 2958.09 698.251C2958.91 698.343 2959.74 698.435 2960.58 698.53C2964.19 698.934 2967.8 699.335 2971.4 699.726C3000.16 702.926 3033.27 708.187 3055 729C3055.54 729.501 3056.09 730.002 3056.65 730.519C3070.9 743.655 3080.08 757.526 3086 776C3086.22 776.694 3086.45 777.389 3086.68 778.105C3095.7 807.11 3097.97 839.61 3100.59 869.718C3102.54 891.963 3105.26 914.092 3108.07 936.242C3108.56 940.086 3109.04 943.931 3109.52 947.776C3111.69 965.024 3113.88 982.266 3116.22 999.492C3117.28 1007.26 3118.25 1015.02 3118.97 1022.84C3120.22 1036.43 3122.28 1049.94 3124.19 1063.46C3125.1 1069.88 3126.01 1076.3 3126.91 1082.73C3127 1083.41 3127.1 1084.09 3127.19 1084.79C3137.3 1157.18 3137.3 1157.18 3121 1179C3118.75 1181.56 3118.75 1181.56 3116 1184C3115.37 1184.57 3114.75 1185.13 3114.1 1185.72C3103.15 1195.04 3089.87 1196.68 3075.89 1195.78C3055.94 1194.1 3036.53 1188.82 3017.39 1183.21C3011.49 1181.49 3005.63 1179.87 2999.6 1178.68C2988.57 1176.41 2977.84 1172.92 2967.06 1169.69C2953.53 1165.63 2940.01 1161.67 2926.32 1158.17C2915.65 1155.43 2905.1 1152.26 2894.54 1149.1C2885.89 1146.51 2877.27 1143.98 2868.46 1142C2858.98 1139.85 2849.73 1137.03 2840.44 1134.19C2836.89 1133.11 2833.34 1132.03 2829.79 1130.95C2828.93 1130.69 2828.07 1130.43 2827.19 1130.16C2821.5 1128.44 2815.79 1126.8 2810.06 1125.22C2800.13 1122.46 2790.52 1119.07 2780.94 1115.31C2779.75 1114.85 2778.57 1114.38 2777.35 1113.91C2768.21 1110.25 2768.21 1110.25 2764.19 1107.86C2761.7 1106.41 2759.74 1105.5 2757.07 1104.59C2752.46 1102.94 2748.75 1100.37 2744.81 1097.5C2744.07 1096.97 2743.34 1096.44 2742.58 1095.89C2727.25 1084.74 2713.59 1072.02 2702 1057C2700.97 1055.69 2700.97 1055.69 2699.91 1054.36C2695.34 1048.37 2691.81 1042.11 2688.58 1035.32C2687.29 1032.6 2685.92 1029.96 2684.5 1027.31C2678.41 1015.06 2674.5 1001.81 2670.87 988.664C2669.34 983.141 2667.72 977.644 2666.1 972.148C2665.83 971.26 2665.57 970.372 2665.3 969.457C2663.7 964.03 2663.7 964.03 2662.09 958.606C2659.53 950.023 2657.03 941.465 2655.07 932.726C2652.58 921.716 2649.27 910.94 2646.06 900.125C2644.84 896.003 2643.62 891.881 2642.41 887.757C2642.11 886.749 2641.82 885.741 2641.51 884.703C2639.74 878.64 2638.07 872.56 2636.5 866.441C2633.41 854.444 2629.68 842.645 2626.01 830.816C2622.73 820.24 2619.59 809.697 2616.99 798.934C2615.11 791.292 2612.72 783.78 2610.44 776.25C2591.97 715.26 2591.97 715.26 2601.75 692.285C2607.94 680.947 2618.14 670.91 2630.68 667.208C2639.52 664.977 2648.06 664.439 2657.12 664.5Z" fill="#A7A185"/>
<path d="M1460.15 664.684C1462.46 664.688 1464.77 664.664 1467.08 664.639C1483.3 664.568 1496.55 667.896 1508.87 679.125C1518.42 689.35 1521.27 702.371 1521.02 716.002C1520.54 728.16 1517.97 740.055 1515.44 751.922C1514.94 754.294 1514.46 756.67 1513.98 759.046C1510.92 773.912 1506.84 788.358 1502.44 802.875C1501.12 807.246 1499.8 811.618 1498.5 815.992C1498.02 817.572 1498.02 817.572 1497.54 819.183C1495.64 825.622 1493.98 832.064 1492.52 838.615C1490.01 849.658 1486.45 860.446 1483.14 871.269C1479.65 882.687 1476.4 894.08 1473.72 905.715C1472.02 913.066 1469.94 920.235 1467.69 927.438C1464.6 937.444 1461.79 947.48 1459.19 957.625C1456.14 969.393 1452.55 980.915 1448.69 992.438C1448.3 993.609 1448.3 993.609 1447.9 994.803C1447.15 997.036 1446.39 999.267 1445.64 1001.5C1445.3 1002.48 1445.3 1002.48 1444.96 1003.48C1443.89 1006.61 1442.73 1009.64 1441.42 1012.67C1440.25 1015.4 1439.37 1017.96 1438.62 1020.82C1437.06 1026.21 1434.68 1030.91 1432 1035.81C1431.56 1036.63 1431.12 1037.45 1430.67 1038.3C1429.46 1040.54 1428.24 1042.77 1427 1045C1426.44 1046.01 1425.89 1047.03 1425.31 1048.07C1424.88 1048.71 1424.45 1049.35 1424 1050C1423.34 1050 1422.68 1050 1422 1050C1421.74 1050.89 1421.49 1051.78 1421.22 1052.7C1418.23 1060.77 1411.21 1066.96 1405.14 1072.85C1403.18 1074.82 1401.4 1076.86 1399.62 1079C1396.07 1083.15 1391.97 1086.45 1387.69 1089.84C1385.36 1091.71 1383.14 1093.66 1380.94 1095.69C1368.17 1106.82 1350.6 1113.52 1334.87 1119.31C1333.66 1119.76 1333.66 1119.76 1332.43 1120.22C1325.96 1122.53 1319.38 1124.25 1312.73 1125.96C1306.54 1127.56 1300.39 1129.32 1294.26 1131.16C1293.35 1131.43 1292.43 1131.7 1291.5 1131.98C1287.78 1133.1 1284.06 1134.22 1280.34 1135.34C1270.53 1138.31 1260.74 1141.14 1250.75 1143.43C1238.32 1146.28 1226.15 1149.96 1213.94 1153.63C1210.56 1154.63 1207.19 1155.64 1203.82 1156.64C1201.74 1157.26 1199.67 1157.88 1197.6 1158.5C1192.73 1159.95 1187.86 1161.31 1182.93 1162.52C1177.41 1163.87 1172 1165.45 1166.57 1167.14C1164.62 1167.75 1162.67 1168.35 1160.72 1168.95C1157.72 1169.87 1154.72 1170.8 1151.73 1171.73C1139.86 1175.41 1127.98 1178.86 1115.95 1181.94C1108.71 1183.8 1101.57 1185.86 1094.44 1188.06C1076.59 1193.46 1058.91 1198.16 1040.19 1198.25C1038.64 1198.28 1038.64 1198.28 1037.07 1198.31C1022.4 1198.39 1013.17 1192.9 1002.56 1183.06C998.795 1179.13 996.785 1175.11 994.999 1170C994.713 1169.21 994.427 1168.42 994.132 1167.61C990.922 1158.39 990.718 1149.62 990.687 1139.94C990.684 1139.15 990.681 1138.35 990.678 1137.54C990.665 1121.96 992.111 1106.74 994.107 1091.31C994.989 1084.38 995.675 1077.43 996.37 1070.47C997.864 1055.7 999.735 1040.98 1001.67 1026.26C1002.68 1018.64 1003.66 1011.01 1004.64 1003.39C1004.74 1002.62 1004.84 1001.85 1004.95 1001.05C1006.86 986.183 1008.71 971.306 1010.49 956.419C1010.78 953.98 1011.08 951.541 1011.37 949.103C1012.79 937.374 1014.08 925.662 1014.96 913.879C1016.04 899.349 1017.74 884.895 1019.49 870.432C1019.75 868.219 1020.02 866.005 1020.28 863.791C1033.21 756.211 1033.21 756.211 1067 729C1067.87 728.243 1068.75 727.487 1069.65 726.707C1074.11 722.933 1078.31 720.074 1083.75 717.922C1086.11 716.955 1088.26 715.786 1090.5 714.563C1106.09 706.813 1124.01 704.734 1141 702C1141.78 701.875 1142.55 701.75 1143.35 701.621C1150.06 700.571 1156.77 699.92 1163.53 699.367C1177.07 698.253 1190.54 696.713 1204.03 695.067C1206.36 694.785 1208.69 694.503 1211.02 694.222C1217.09 693.489 1223.17 692.751 1229.24 692.011C1234.15 691.415 1239.06 690.821 1243.98 690.228C1254.23 688.989 1264.48 687.749 1274.73 686.502C1275.75 686.378 1276.77 686.254 1277.83 686.126C1282.95 685.501 1288.08 684.866 1293.2 684.212C1302.5 683.028 1311.8 681.885 1321.13 680.998C1330.78 680.077 1340.35 678.798 1349.94 677.442C1352.94 677.018 1355.94 676.598 1358.95 676.18C1365.32 675.291 1371.69 674.396 1378.06 673.5C1385.46 672.46 1392.87 671.423 1400.27 670.39C1403.19 669.982 1406.11 669.57 1409.03 669.157C1417.76 667.931 1426.5 666.778 1435.27 665.833C1436.39 665.711 1436.39 665.711 1437.53 665.586C1445.06 664.808 1452.59 664.663 1460.15 664.684Z" fill="#A8A285"/>
<path d="M3113 2286C3125.07 2296.88 3130.1 2309.73 3131.18 2325.65C3132.79 2358.96 3126.37 2392.76 3121.82 2425.66C3121.65 2426.9 3121.48 2428.15 3121.3 2429.43C3120.99 2431.73 3120.67 2434.03 3120.34 2436.33C3119.4 2443.24 3118.7 2450.14 3118.1 2457.09C3117.03 2469.3 3115.6 2481.46 3114.13 2493.62C3113.65 2497.64 3113.17 2501.66 3112.69 2505.68C3111.5 2515.68 3110.31 2525.67 3109.11 2535.66C3107.94 2545.47 3106.77 2555.28 3105.6 2565.09C3105.52 2565.77 3105.44 2566.45 3105.36 2567.15C3103.13 2585.91 3101 2604.68 3099.24 2623.49C3096.38 2653.97 3093.22 2687.45 3079.31 2715.12C3078.97 2715.8 3078.63 2716.48 3078.28 2717.18C3075.06 2723.33 3070.89 2728.09 3066 2733C3064.8 2734.39 3063.62 2735.78 3062.44 2737.19C3041.53 2761 3013.29 2766.77 2983.27 2771.42C2982.6 2771.53 2981.92 2771.63 2981.22 2771.74C2965.42 2774.19 2949.56 2776.11 2933.68 2777.93C2930.76 2778.27 2927.83 2778.62 2924.91 2778.97C2911.95 2780.5 2899 2781.99 2885.99 2782.98C2871.59 2784.09 2857.28 2785.98 2842.96 2787.83C2839.87 2788.23 2836.78 2788.62 2833.68 2789.02C2810.33 2792 2786.99 2795.11 2763.66 2798.35C2750.42 2800.18 2737.17 2801.82 2723.89 2803.33C2715.15 2804.32 2706.43 2805.48 2697.72 2806.64C2685.48 2808.24 2673.44 2809.25 2661.1 2809.35C2659.58 2809.37 2658.07 2809.39 2656.56 2809.43C2641.98 2809.8 2627.54 2807.74 2616 2798C2614.96 2797.14 2614.96 2797.14 2613.89 2796.26C2605.4 2788.57 2601.46 2779.2 2600.9 2767.89C2600.83 2765.65 2600.81 2763.42 2600.81 2761.19C2600.8 2760.48 2600.79 2759.77 2600.78 2759.03C2600.73 2742.94 2603.69 2727.56 2607.75 2712.06C2608.2 2710.29 2608.66 2708.52 2609.11 2706.75C2611.53 2697.3 2614 2687.85 2617.02 2678.57C2618.29 2674.62 2619.32 2670.67 2620.23 2666.62C2623.04 2654.2 2626.72 2642.06 2630.38 2629.87C2634.41 2616.41 2638.34 2602.95 2641.82 2589.34C2644.57 2578.65 2647.74 2568.1 2650.9 2557.54C2653.72 2548.12 2656.37 2538.73 2658.55 2529.14C2660.26 2521.66 2662.48 2514.34 2664.75 2507C2665.19 2505.57 2665.63 2504.13 2666.07 2502.7C2667.17 2499.13 2668.27 2495.57 2669.38 2492.01C2669.97 2490.1 2670.56 2488.2 2671.14 2486.3C2676.79 2468.1 2683.11 2450.88 2692 2434C2692.32 2433.39 2692.63 2432.77 2692.96 2432.14C2697.59 2423.26 2703.09 2415.94 2709.72 2408.48C2711.59 2406.32 2713.28 2404.03 2715 2401.75C2718.62 2397.16 2722.77 2393.66 2727.39 2390.11C2730.13 2387.9 2732.54 2385.51 2735 2383C2738.77 2379.47 2742.52 2376.5 2747.09 2374.05C2749.24 2372.87 2751.3 2371.56 2753.38 2370.25C2766.43 2362.48 2780.23 2357.26 2794.67 2352.69C2797.44 2351.81 2800.2 2350.92 2802.96 2350.03C2816.73 2345.59 2830.56 2341.55 2844.62 2338.13C2856.64 2335.19 2868.46 2331.52 2880.32 2327.99C2900.47 2322 2900.47 2322 2908 2320.52C2918.52 2318.43 2928.71 2314.9 2938.94 2311.69C2952.23 2307.52 2965.52 2303.52 2979.02 2300.08C2986.83 2298.08 2994.46 2295.71 3002.13 2293.19C3086.01 2266.18 3086.01 2266.18 3113 2286Z" fill="#A8A285"/>
<path d="M1053.38 2277.19C1054.79 2277.38 1054.79 2277.38 1056.23 2277.58C1064.52 2278.8 1072.6 2280.65 1080.72 2282.72C1084.64 2283.71 1088.56 2284.47 1092.54 2285.19C1104.03 2287.45 1115.18 2291.06 1126.38 2294.44C1143.34 2299.64 1143.34 2299.64 1160.53 2304C1173.06 2306.78 1185.26 2310.82 1197.52 2314.58C1213.2 2319.41 1213.2 2319.41 1229.17 2323.13C1239.03 2325.37 1248.69 2328.53 1258.38 2331.44C1262.84 2332.77 1267.31 2334.11 1271.77 2335.43C1272.85 2335.75 1273.92 2336.07 1275.03 2336.4C1280.88 2338.13 1286.74 2339.75 1292.68 2341.17C1300.2 2342.99 1307.49 2345.32 1314.81 2347.81C1316.13 2348.26 1317.44 2348.7 1318.75 2349.14C1322.51 2350.42 1326.25 2351.71 1330 2353C1330.98 2353.33 1331.95 2353.67 1332.96 2354.01C1347.76 2359.13 1361.57 2365.26 1374.45 2374.24C1376.11 2375.39 1377.81 2376.48 1379.54 2377.51C1388.29 2382.81 1395.48 2390.28 1402.69 2397.44C1403.48 2398.22 1404.28 2399.01 1405.1 2399.82C1413.12 2407.88 1420 2416.52 1426.06 2426.13C1426.54 2426.85 1427.02 2427.58 1427.51 2428.33C1435.77 2441.34 1440.57 2455.95 1445.24 2470.54C1446.12 2473.3 1447.02 2476.06 1447.93 2478.83C1451.45 2489.69 1454.6 2500.6 1457.41 2511.68C1461.22 2526.66 1465.44 2541.5 1469.85 2556.32C1472.35 2564.75 1474.84 2573.16 1476.9 2581.71C1479.64 2592.94 1483.13 2603.95 1486.5 2615C1493.88 2639.2 1493.88 2639.2 1496.05 2648.2C1498.22 2657.22 1501.05 2666.02 1503.83 2674.87C1508.66 2690.3 1513.2 2705.73 1516.75 2721.5C1516.91 2722.2 1517.07 2722.89 1517.23 2723.61C1521.77 2743.78 1526.6 2765.76 1514.88 2784.31C1507.24 2795.69 1498.06 2801.95 1484.65 2805.11C1477.35 2806.49 1469.97 2806.39 1462.56 2806.38C1461.39 2806.38 1461.39 2806.38 1460.2 2806.38C1445.03 2806.35 1430.25 2804.89 1415.24 2802.89C1409.58 2802.16 1403.91 2801.59 1398.23 2801.05C1379.38 2799.26 1360.63 2796.84 1341.86 2794.36C1332.45 2793.11 1323.04 2791.89 1313.63 2790.67C1312.71 2790.55 1311.8 2790.43 1310.86 2790.31C1296.5 2788.44 1282.13 2786.62 1267.75 2784.94C1266.98 2784.85 1266.2 2784.75 1265.41 2784.66C1257.46 2783.72 1249.52 2782.95 1241.55 2782.35C1226.4 2781.21 1211.33 2779.53 1196.25 2777.71C1193.39 2777.36 1190.53 2777.02 1187.67 2776.69C1172.02 2774.85 1156.41 2772.86 1140.84 2770.43C1138.95 2770.14 1138.95 2770.14 1137.01 2769.83C1101.42 2764.16 1101.42 2764.16 1089 2758C1087.42 2757.28 1087.42 2757.28 1085.81 2756.54C1079.2 2753.35 1073.58 2749.77 1068 2745C1067.31 2744.42 1066.62 2743.84 1065.91 2743.25C1062.55 2740.36 1059.27 2737.38 1056.06 2734.31C1055.5 2733.77 1054.93 2733.23 1054.35 2732.68C1052.84 2730.8 1052.41 2729.36 1052 2727C1051.34 2727 1050.68 2727 1050 2727C1023.67 2691.87 1023.65 2640.6 1018.75 2598.5C1018.62 2597.38 1018.62 2597.38 1018.49 2596.25C1015.13 2567.51 1015.13 2567.51 1014.06 2553.17C1012.88 2537.79 1010.7 2522.51 1008.65 2507.23C1008.08 2503.02 1007.52 2498.82 1006.97 2494.61C1004.96 2479.53 1002.93 2464.46 1000.89 2449.38C1000.73 2448.21 1000.57 2447.03 1000.41 2445.82C999.693 2440.52 998.974 2435.22 998.246 2429.92C996.717 2418.72 995.339 2407.52 994.068 2396.29C993.377 2390.2 992.643 2384.11 991.833 2378.04C989.866 2363.03 988.604 2348.2 988.563 2333.06C988.557 2332.34 988.551 2331.61 988.545 2330.86C988.462 2315.91 990.74 2301.5 1000.88 2289.84C1016.04 2275.91 1033.82 2274.42 1053.38 2277.19Z" fill="#A8A285"/>
<path d="M1199 1886C1199 1886.66 1199 1887.32 1199 1888C1199.84 1888.34 1199.84 1888.34 1200.69 1888.68C1203.68 1890.39 1205.62 1892.52 1207.94 1895.06C1208.77 1895.96 1209.61 1896.86 1210.46 1897.79C1213.59 1901.52 1215.75 1905.7 1218 1910C1218.85 1911.59 1218.85 1911.59 1219.72 1913.21C1221.33 1916.23 1222.93 1919.26 1224.51 1922.3C1225.17 1923.55 1225.83 1924.8 1226.49 1926.05C1230.65 1933.88 1234.1 1941.57 1236.95 1949.98C1238.15 1953.44 1239.57 1956.6 1241.19 1959.87C1247.88 1973.77 1253.66 1988.13 1258.95 2002.61C1260.87 2007.8 1263.13 2012.78 1265.49 2017.78C1267.1 2021.21 1268.62 2024.65 1270.12 2028.12C1270.58 2029.18 1271.04 2030.23 1271.51 2031.32C1272.71 2034.28 1273.81 2037.23 1274.88 2040.24C1276.94 2045.96 1279.34 2051.5 1281.81 2057.06C1284.8 2063.84 1287.7 2070.63 1290.31 2077.56C1293.66 2086.43 1297.49 2095.09 1301.3 2103.77C1305.27 2112.85 1309.01 2121.99 1312.46 2131.28C1314.34 2136.31 1316.39 2141.19 1318.67 2146.05C1327.68 2166.01 1334.85 2186.99 1341 2208C1341.25 2208.82 1341.49 2209.64 1341.75 2210.48C1344.6 2221.28 1344.02 2232.47 1338.76 2242.32C1336.43 2246.26 1336.43 2246.26 1335 2248C1334.34 2248 1333.68 2248 1333 2248C1332.61 2248.87 1332.61 2248.87 1332.21 2249.76C1327.74 2258.04 1319.53 2262.74 1311 2266C1307.95 2266.8 1305.14 2266.98 1302 2267C1300.95 2267.04 1299.9 2267.07 1298.81 2267.11C1274.02 2267.62 1250.55 2261.57 1226.66 2255.71C1225.87 2255.52 1225.07 2255.33 1224.26 2255.13C1220.43 2254.19 1216.6 2253.24 1212.78 2252.28C1204.32 2250.18 1195.83 2248.34 1187.27 2246.67C1171.28 2243.55 1155.46 2239.72 1139.62 2235.93C1121.07 2231.47 1121.07 2231.47 1102.31 2228.04C1093.33 2226.64 1084.52 2224.45 1075.69 2222.31C1074.78 2222.09 1073.87 2221.88 1072.94 2221.65C1061.13 2218.81 1049.35 2215.87 1037.62 2212.69C1036.51 2212.39 1035.39 2212.09 1034.23 2211.78C1015.21 2206.48 996.781 2198.42 986.472 2180.73C985.986 2179.83 985.5 2178.93 985 2178C984.565 2177.24 984.131 2176.49 983.683 2175.71C981.011 2170.29 980.598 2165.07 980.5 2159.12C980.481 2158.41 980.463 2157.69 980.443 2156.95C980.582 2144.87 986.631 2134.13 992.125 2123.69C992.623 2122.73 992.623 2122.73 993.131 2121.76C997.557 2113.27 1002.22 2105.08 1007.74 2097.26C1010.17 2093.76 1012.35 2090.17 1014.5 2086.5C1018.37 2079.94 1022.53 2073.61 1026.78 2067.3C1029.28 2063.58 1031.65 2059.81 1034 2056C1037.42 2050.54 1040.9 2045.13 1044.5 2039.79C1049.24 2032.76 1053.72 2025.61 1058.09 2018.36C1061.03 2013.52 1064.14 2008.88 1067.46 2004.29C1069.74 2000.91 1071.56 1997.32 1073.47 1993.73C1075.98 1989.25 1079.01 1985.16 1082 1981C1085.19 1976.44 1088.11 1971.87 1090.69 1966.94C1093.71 1961.26 1097.3 1956.08 1100.98 1950.83C1103.41 1947.34 1105.75 1943.87 1107.87 1940.19C1112.29 1932.62 1117.43 1925.5 1122.41 1918.3C1123.85 1916.22 1125.28 1914.14 1126.7 1912.06C1127.49 1910.91 1128.28 1909.77 1129.06 1908.62C1130.07 1907.16 1130.07 1907.16 1131.1 1905.66C1134.4 1901.04 1137.93 1896.97 1142 1893C1142.58 1892.37 1143.15 1891.73 1143.75 1891.08C1158.56 1875.19 1180.93 1875.73 1199 1886Z" fill="#979796"/>
<path d="M1301.06 1197.44C1302.62 1197.42 1302.62 1197.42 1304.22 1197.39C1312.54 1197.51 1320.38 1198.94 1326.88 1204.43C1327.58 1205.28 1328.28 1206.13 1329 1207C1330.24 1208.24 1330.24 1208.24 1331.5 1209.51C1341.14 1219.6 1345.44 1229.18 1345.27 1243.11C1344.06 1260.63 1337.48 1276.97 1330.94 1293.09C1329.67 1296.22 1328.52 1299.36 1327.48 1302.57C1326.01 1307.1 1324.2 1311.44 1322.31 1315.81C1319.46 1322.51 1316.68 1329.23 1314 1336C1309.34 1347.73 1304.48 1359.36 1299.41 1370.92C1298.97 1371.93 1298.53 1372.94 1298.07 1373.98C1297.22 1375.93 1296.36 1377.88 1295.5 1379.82C1293.56 1384.24 1291.73 1388.66 1290.12 1393.21C1287.78 1399.76 1285.03 1406.12 1282.29 1412.51C1277.16 1424.44 1272.18 1436.41 1267.42 1448.5C1264.69 1455.38 1261.75 1462.15 1258.68 1468.9C1256.29 1474.23 1254.31 1479.64 1252.41 1485.16C1248.35 1496.54 1243.16 1507.6 1238.1 1518.55C1236.89 1521.24 1235.79 1523.96 1234.69 1526.69C1231.52 1534.33 1227.83 1541.68 1224 1549C1223.64 1549.69 1223.28 1550.39 1222.91 1551.1C1216.08 1564.04 1208.16 1578.85 1193.22 1583.56C1188.19 1584.55 1182.98 1584.27 1177.88 1584.31C1176.69 1584.34 1175.5 1584.37 1174.28 1584.4C1162.22 1584.49 1153.88 1581.12 1145 1573C1143.21 1571.07 1141.63 1569.08 1140 1567C1138.86 1565.89 1138.86 1565.89 1137.69 1564.75C1131.49 1558.41 1126.45 1551.38 1121.79 1543.86C1119.88 1540.8 1117.89 1537.81 1115.88 1534.81C1111.9 1528.86 1108.02 1522.93 1104.63 1516.63C1102.85 1513.37 1100.89 1510.37 1098.72 1507.37C1095.1 1502.24 1091.94 1496.94 1088.81 1491.5C1084.12 1483.44 1079.22 1475.6 1073.96 1467.9C1071.51 1464.31 1069.25 1460.72 1067.13 1456.92C1064.09 1451.76 1060.59 1446.87 1057.22 1441.91C1053.97 1437.09 1050.98 1432.24 1048.21 1427.13C1046.2 1423.59 1043.85 1420.31 1041.5 1417C1038.1 1412.14 1034.93 1407.31 1032.16 1402.05C1030.33 1398.8 1028.12 1395.83 1025.96 1392.8C1020.26 1384.65 1015.04 1376.28 1010.38 1367.49C1009.1 1365.17 1007.71 1363.04 1006.19 1360.88C992.956 1341.36 981.113 1317.02 985.367 1292.93C988.034 1282.15 993.9 1272.38 1003.19 1266.19C1017.08 1258.18 1031.27 1253.8 1046.78 1250.27C1049.12 1249.73 1051.45 1249.19 1053.79 1248.66C1054.98 1248.38 1056.18 1248.11 1057.41 1247.83C1061.98 1246.77 1066.56 1245.71 1071.13 1244.64C1075.57 1243.6 1080.02 1242.56 1084.46 1241.53C1086.72 1241 1088.98 1240.48 1091.23 1239.95C1094.58 1239.16 1097.92 1238.39 1101.27 1237.61C1102.26 1237.38 1103.25 1237.14 1104.27 1236.9C1109.3 1235.74 1114.31 1234.77 1119.43 1234.02C1126.01 1233.05 1132.45 1231.64 1138.92 1230.1C1140.11 1229.83 1141.29 1229.55 1142.51 1229.26C1146.26 1228.39 1150 1227.51 1153.75 1226.63C1156.25 1226.04 1158.74 1225.46 1161.23 1224.88C1174.05 1221.88 1174.05 1221.88 1186.85 1218.84C1195 1216.88 1203.16 1215.14 1211.39 1213.53C1219.63 1211.9 1227.81 1210.03 1236 1208.14C1281.7 1197.64 1281.7 1197.64 1301.06 1197.44Z" fill="#979796"/>
<path d="M1617.53 2464.72C1620.56 2465.84 1623.6 2466.92 1626.64 2468.01C1632.79 2470.24 1638.8 2472.8 1644.81 2475.37C1645.96 2475.86 1647.1 2476.35 1648.28 2476.85C1652.97 2478.85 1657.66 2480.85 1662.34 2482.87C1667.52 2485.11 1672.69 2487.28 1677.96 2489.26C1684.69 2491.84 1691.29 2494.68 1697.89 2497.59C1707.47 2501.81 1717.04 2505.87 1726.9 2509.41C1733.57 2511.91 1740.04 2514.93 1746.52 2517.87C1752.2 2520.42 1757.91 2522.76 1763.75 2524.91C1772.83 2528.25 1781.69 2532.06 1790.57 2535.9C1798.06 2539.12 1805.55 2542.25 1813.21 2545.06C1820.38 2547.69 1827.29 2550.77 1834.19 2554.06C1840.6 2557.11 1846.97 2560.04 1853.62 2562.52C1859.63 2564.78 1865.23 2567.52 1870.88 2570.56C1871.76 2571.03 1872.64 2571.5 1873.56 2571.98C1901.35 2586.77 1901.35 2586.77 1907 2601C1911.23 2616.02 1909.78 2630.9 1902.44 2644.53C1898.95 2650.57 1894.51 2654.74 1889 2659C1888.25 2659.64 1887.51 2660.28 1886.74 2660.93C1880.36 2666.32 1873.4 2670.73 1866.38 2675.2C1862.94 2677.39 1859.55 2679.64 1856.17 2681.93C1849.78 2686.26 1843.29 2690.16 1836.55 2693.93C1831.96 2696.55 1827.62 2699.54 1823.25 2702.5C1819.45 2705.07 1815.62 2707.38 1811.57 2709.53C1807.02 2712.13 1802.68 2715.05 1798.3 2717.91C1794.47 2720.41 1790.63 2722.87 1786.69 2725.19C1782.09 2727.9 1777.67 2730.86 1773.23 2733.84C1769.7 2736.2 1766.14 2738.52 1762.56 2740.81C1761.98 2741.19 1761.4 2741.56 1760.81 2741.94C1758.44 2743.46 1756.07 2744.96 1753.65 2746.39C1749.71 2748.79 1745.89 2751.37 1742.06 2753.94C1741.28 2754.46 1740.49 2754.99 1739.68 2755.53C1738.91 2756.04 1738.14 2756.56 1737.35 2757.09C1736.6 2757.59 1735.86 2758.09 1735.09 2758.6C1733.29 2759.81 1731.49 2761.02 1729.7 2762.23C1727.42 2763.72 1725.16 2765.05 1722.75 2766.31C1719.49 2768.09 1716.48 2770.03 1713.47 2772.2C1707.73 2776.26 1701.74 2779.86 1695.69 2783.44C1687.35 2788.34 1687.35 2788.34 1679.15 2793.47C1670.27 2799.24 1660.85 2803.21 1651 2807C1649.84 2807.46 1648.69 2807.92 1647.49 2808.39C1634.58 2812.98 1620.54 2812.56 1608 2807C1596.53 2801.18 1589.98 2794.58 1585.13 2782.75C1584.79 2781.95 1584.46 2781.15 1584.12 2780.33C1575.61 2758.99 1570.73 2736.1 1566.36 2713.61C1563.16 2697.25 1559.35 2681.05 1555.51 2664.83C1549.97 2641.44 1549.97 2641.44 1548.21 2630.6C1546.43 2620.14 1543.7 2609.86 1541.19 2599.56C1535.51 2576.15 1530.07 2552.74 1526 2529C1525.78 2527.73 1525.56 2526.46 1525.34 2525.15C1518.47 2484.37 1518.47 2484.37 1528.38 2469.31C1552.17 2438.93 1587.81 2453.78 1617.53 2464.72Z" fill="#979796"/>
<path d="M2575 2463C2576.01 2463.74 2577.02 2464.48 2578.06 2465.25C2578.7 2465.83 2579.34 2466.4 2580 2467C2580 2467.66 2580 2468.32 2580 2469C2580.66 2469 2581.32 2469 2582 2469C2592.48 2481.13 2594.91 2494.43 2594 2510C2592.84 2523.4 2589.66 2536.52 2586.6 2549.59C2585.17 2555.72 2583.83 2561.83 2582.75 2568.04C2581.34 2575.89 2579.46 2583.61 2577.57 2591.35C2577.41 2592 2577.25 2592.66 2577.08 2593.33C2575.58 2599.46 2574.06 2605.6 2572.55 2611.73C2569.2 2625.26 2565.9 2638.74 2563.56 2652.49C2562.14 2660.66 2560.31 2668.73 2558.43 2676.8C2558.27 2677.5 2558.11 2678.19 2557.95 2678.9C2556.95 2683.17 2555.95 2687.44 2554.95 2691.71C2553.6 2697.45 2552.25 2703.2 2550.91 2708.95C2550.45 2710.91 2549.99 2712.88 2549.52 2714.84C2547.69 2722.67 2546.11 2730.51 2544.69 2738.42C2543.67 2743.71 2542.24 2748.84 2540.69 2754C2540.38 2755.02 2540.08 2756.05 2539.76 2757.1C2529.39 2791.43 2529.39 2791.43 2519 2801C2518.35 2801.61 2517.71 2802.22 2517.04 2802.84C2505.87 2812.82 2495.68 2817.03 2480.66 2816.46C2462.33 2815.09 2442.73 2802.22 2428 2792C2419.62 2786.27 2419.62 2786.27 2410.81 2781.25C2404.95 2778.16 2399.7 2774.32 2394.33 2770.46C2389.39 2766.92 2384.35 2763.76 2379.04 2760.78C2374.68 2758.23 2370.51 2755.4 2366.34 2752.55C2362.96 2750.26 2359.54 2748.16 2355.98 2746.16C2351.6 2743.59 2347.42 2740.73 2343.19 2737.94C2335.31 2732.76 2327.38 2727.73 2319.31 2722.87C2313.78 2719.52 2308.41 2715.98 2303.06 2712.35C2299.17 2709.74 2295.23 2707.4 2291.1 2705.2C2287.74 2703.28 2284.63 2701.01 2281.47 2698.76C2279.15 2697.1 2276.8 2695.48 2274.44 2693.87C2273.8 2693.44 2273.16 2693 2272.5 2692.55C2270.28 2691.17 2268.04 2689.93 2265.75 2688.69C2261.13 2686.14 2256.89 2683.22 2252.62 2680.12C2247.83 2676.68 2243.04 2673.33 2238 2670.25C2233.64 2667.53 2229.89 2664.46 2226.12 2660.97C2224.07 2659.07 2221.96 2657.29 2219.81 2655.5C2211.88 2648.53 2206.41 2640.02 2205.06 2629.44C2204.4 2616.48 2207.55 2604.01 2215.75 2593.83C2224.63 2584.28 2236.37 2578.57 2247.95 2573C2249.94 2572.03 2251.91 2571.02 2253.87 2570C2261.82 2565.88 2269.87 2562.34 2278.2 2559.08C2284.58 2556.58 2290.89 2553.96 2297.19 2551.25C2298.04 2550.88 2298.88 2550.52 2299.76 2550.14C2303.62 2548.48 2307.47 2546.79 2311.3 2545.05C2314.89 2543.44 2318.52 2542.01 2322.2 2540.62C2330.34 2537.53 2338.3 2534.04 2346.27 2530.55C2352.42 2527.89 2358.58 2525.37 2364.87 2523.07C2373.17 2520.01 2381.24 2516.48 2389.31 2512.87C2397.25 2509.33 2405.15 2505.86 2413.36 2502.97C2418.31 2501.15 2423.07 2498.92 2427.87 2496.75C2436.55 2492.88 2445.26 2489.3 2454.16 2486C2461.9 2483.1 2469.46 2479.84 2477.01 2476.5C2492.84 2469.49 2492.84 2469.49 2501.12 2467.12C2506.14 2465.63 2511 2463.89 2515.87 2462C2536.36 2454.11 2556.2 2449.15 2575 2463Z" fill="#979796"/>
<path d="M2979 1900C2984 1904.96 2988.13 1910.12 2992 1916C2993.46 1917.98 2994.91 1919.96 2996.38 1921.94C3001.68 1929.23 3006.31 1936.91 3010.91 1944.65C3013.67 1949.27 3016.49 1953.76 3019.61 1958.14C3022.28 1961.89 3024.56 1965.7 3026.74 1969.74C3029.04 1973.87 3031.7 1977.76 3034.31 1981.69C3038.15 1987.51 3041.86 1993.34 3045.25 1999.44C3048.37 2005.04 3051.87 2010.22 3055.57 2015.44C3058.45 2019.57 3061.03 2023.88 3063.63 2028.19C3067.05 2033.87 3070.57 2039.39 3074.45 2044.78C3076.66 2047.95 3078.59 2051.27 3080.55 2054.59C3082.34 2057.56 3084.25 2060.42 3086.19 2063.29C3093.11 2073.64 3099.76 2084.16 3106.21 2094.81C3108.51 2098.61 3110.86 2102.34 3113.38 2106C3115.74 2109.49 3117.62 2113.07 3119.45 2116.87C3121.14 2120.27 3122.92 2123.62 3124.71 2126.97C3133.89 2144.16 3140.43 2160.75 3135.74 2180.61C3131.85 2193.16 3123.34 2202.59 3112 2209C3108.31 2210.66 3104.54 2211.95 3100.69 2213.19C3099.56 2213.56 3098.44 2213.93 3097.28 2214.31C3085.69 2217.98 3073.92 2220.98 3062.13 2223.94C3060.7 2224.3 3060.7 2224.3 3059.25 2224.66C3056.48 2225.35 3053.71 2226.04 3050.95 2226.71C3050.14 2226.92 3049.33 2227.12 3048.49 2227.33C3043.99 2228.41 3039.51 2229.25 3034.92 2229.91C3027.71 2230.98 3020.65 2232.57 3013.56 2234.24C3011.21 2234.79 3008.86 2235.34 3006.51 2235.88C3001.51 2237.04 2996.5 2238.21 2991.5 2239.38C2984.93 2240.91 2978.36 2242.44 2971.78 2243.96C2970.99 2244.15 2970.19 2244.33 2969.37 2244.52C2959.68 2246.76 2949.99 2248.86 2940.2 2250.63C2929.89 2252.52 2919.74 2255.07 2909.56 2257.56C2889.79 2262.37 2870.08 2266.69 2850 2270C2848.61 2270.23 2848.61 2270.23 2847.2 2270.47C2811.15 2276.46 2811.15 2276.46 2796.25 2267.25C2787.52 2260.97 2780.22 2250.94 2777.56 2240.44C2773.09 2212.66 2787.86 2182.3 2798.61 2157.32C2800.45 2152.92 2802.14 2148.47 2803.84 2144.01C2805.48 2139.75 2807.29 2135.56 2809.13 2131.38C2812.65 2123.23 2816.04 2115.04 2819.38 2106.81C2823.97 2095.46 2828.7 2084.18 2833.49 2072.91C2838.61 2060.86 2838.61 2060.86 2843.41 2048.68C2846.44 2040.72 2849.89 2032.95 2853.34 2025.16C2856.3 2018.47 2859.13 2011.81 2861.54 2004.89C2863.95 1997.95 2866.88 1991.31 2869.94 1984.63C2873.15 1977.52 2876.31 1970.48 2878.88 1963.13C2883.07 1951.4 2888.98 1940.33 2894.47 1929.18C2895.76 1926.5 2896.98 1923.81 2898.15 1921.07C2899.91 1917.04 2902.07 1913.41 2904.5 1909.75C2905.07 1908.87 2905.07 1908.87 2905.64 1907.98C2907.92 1904.49 2910.24 1901.11 2913 1898C2913.66 1898 2914.32 1898 2915 1898C2915.25 1897.39 2915.51 1896.79 2915.77 1896.16C2918.38 1891.57 2923.64 1889.49 2928.44 1887.75C2947.78 1883.68 2964.03 1886.93 2979 1900Z" fill="#969695"/>
<path d="M1658 661C1659.17 661.451 1660.34 661.902 1661.55 662.367C1672.6 666.747 1682.4 672.963 1692.39 679.346C1696.45 681.918 1700.57 684.391 1704.69 686.875C1710.14 690.183 1715.44 693.602 1720.61 697.342C1722.92 698.944 1725.26 700.387 1727.68 701.808C1732.75 704.826 1737.69 708.01 1742.63 711.25C1749.57 715.791 1756.55 720.239 1763.61 724.601C1768.03 727.349 1772.31 730.24 1776.5 733.332C1778.69 734.791 1780.87 736.051 1783.18 737.308C1788.17 740.041 1792.89 743.112 1797.63 746.25C1803.72 750.255 1809.84 754.173 1816.13 757.875C1821.04 760.773 1825.73 763.868 1830.36 767.199C1833.56 769.381 1836.86 771.347 1840.19 773.312C1846 776.745 1851.65 780.354 1857.24 784.132C1860.52 786.35 1863.82 788.533 1867.16 790.656C1911.39 818.73 1911.39 818.73 1916.59 835.937C1919.31 849.461 1917.04 863.171 1909.64 874.695C1903.75 882.975 1895.56 887.834 1887 893C1886.42 893.352 1885.85 893.705 1885.25 894.068C1877.01 899.071 1868.56 903.124 1859.68 906.861C1856.45 908.235 1853.23 909.639 1850.02 911.047C1838.22 916.204 1826.42 921.327 1814.43 926.036C1806.35 929.223 1798.36 932.632 1790.37 936.057C1785.16 938.281 1779.94 940.425 1774.64 942.429C1768.04 944.942 1761.58 947.741 1755.12 950.589C1738.02 958.116 1738.02 958.116 1729.81 961.062C1722.5 963.691 1715.46 966.87 1708.38 970.062C1700.5 973.612 1692.71 976.979 1684.52 979.73C1673.3 983.777 1662.3 988.781 1651.55 993.929C1649.36 994.847 1647.22 995.599 1644.97 996.328C1639.14 998.235 1633.49 1000.57 1627.81 1002.87C1624.5 1004.2 1621.19 1005.53 1617.87 1006.85C1616.2 1007.52 1614.52 1008.19 1612.85 1008.87C1595.9 1015.7 1574.01 1022.45 1556.36 1015.13C1553.3 1013.67 1550.68 1012.08 1548 1010C1547.38 1009.52 1546.75 1009.04 1546.11 1008.54C1536.12 1000.41 1530.76 990.658 1529 978C1527.67 955.319 1532.51 933.138 1537.88 911.25C1538.4 909.072 1538.92 906.893 1539.44 904.715C1541.38 896.642 1543.34 888.576 1545.39 880.533C1545.61 879.667 1545.83 878.801 1546.06 877.909C1546.46 876.349 1546.86 874.789 1547.27 873.232C1548.53 868.309 1549.51 863.355 1550.43 858.358C1551.87 850.464 1553.62 842.661 1555.47 834.851C1555.79 833.46 1556.12 832.069 1556.44 830.677C1557.8 824.867 1559.16 819.058 1560.53 813.25C1561.54 808.972 1562.54 804.694 1563.53 800.414C1563.69 799.721 1563.85 799.028 1564.02 798.313C1565.92 790.089 1567.63 781.889 1568.88 773.539C1570.42 763.733 1573.01 754.136 1575.45 744.524C1576.31 741.139 1577.15 737.751 1578 734.363C1580.56 724.141 1583.21 713.953 1586.2 703.847C1586.44 703.059 1586.67 702.27 1586.91 701.457C1590.25 690.418 1595.47 680.759 1603 672C1603.75 671.005 1604.5 670.009 1605.28 668.984C1608.01 665.705 1611.07 664.08 1614.94 662.25C1616.71 661.391 1616.71 661.391 1618.53 660.515C1631.47 654.866 1645.08 655.415 1658 661Z" fill="#969695"/>
<path d="M2521 669.242C2542.13 687.815 2545.73 721.748 2551.21 747.689C2552.6 754.241 2554.08 760.768 2555.62 767.289C2555.95 768.692 2555.95 768.692 2556.28 770.124C2557.14 773.752 2558 777.379 2558.86 781.004C2561.28 791.109 2563.46 801.221 2565.36 811.437C2568.07 825.934 2571.52 840.234 2575 854.562C2578.93 870.754 2582.69 886.933 2585.87 903.29C2586.89 908.487 2587.99 913.662 2589.13 918.832C2589.38 919.955 2589.38 919.955 2589.64 921.101C2589.97 922.586 2590.3 924.071 2590.63 925.555C2598.15 959.595 2598.15 959.595 2598.38 977.187C2598.39 978.037 2598.4 978.887 2598.42 979.763C2598.33 990.599 2594.31 999.255 2587 1007.17C2577.51 1016.21 2565.59 1020.57 2552.57 1020.31C2544.9 1019.64 2537.46 1017.86 2530 1016C2529.27 1015.82 2528.54 1015.65 2527.79 1015.46C2509.65 1010.94 2492.47 1003.08 2475.26 995.935C2471.5 994.38 2467.75 992.837 2463.99 991.292C2457.94 988.804 2451.9 986.295 2445.88 983.75C2445.1 983.425 2444.33 983.1 2443.54 982.765C2440.11 981.32 2436.69 979.868 2433.28 978.39C2430.42 977.176 2427.55 976.07 2424.63 975C2417.87 972.43 2411.29 969.502 2404.69 966.562C2396.76 963.04 2388.86 959.747 2380.71 956.8C2372.34 953.679 2364.14 950.067 2355.91 946.58C2348.47 943.398 2348.47 943.398 2340.92 940.472C2334.93 938.286 2329.11 935.655 2323.25 933.125C2307.04 926.097 2307.04 926.097 2290.61 919.582C2283.66 916.926 2276.93 913.854 2270.19 910.687C2268.95 910.109 2267.72 909.53 2266.48 908.952C2219.87 887.093 2219.87 887.093 2214 873C2211.9 866.328 2211.67 860.091 2211.69 853.125C2211.67 852.1 2211.66 851.075 2211.64 850.019C2211.63 841.234 2212.88 833.111 2218.19 825.875C2218.72 825.129 2219.25 824.384 2219.79 823.617C2225.58 816.752 2232.04 811.173 2239.31 805.937C2240.57 805.024 2240.57 805.024 2241.85 804.093C2247.76 799.82 2253.77 795.791 2260 792C2261.71 790.92 2263.42 789.837 2265.13 788.75C2266.02 788.178 2266.92 787.607 2267.85 787.019C2270.27 785.466 2272.68 783.901 2275.09 782.324C2287.81 773.991 2287.81 773.991 2293.44 771.062C2299.41 767.938 2304.91 764.13 2310.46 760.312C2314.59 757.495 2318.69 755.083 2323.2 752.92C2325.78 751.602 2328.01 749.943 2330.31 748.187C2336.98 743.226 2343.84 738.641 2351.19 734.75C2356.44 731.911 2361.24 728.43 2366.12 725.017C2370.28 722.127 2374.46 719.521 2378.95 717.156C2382.2 715.322 2385.17 713.115 2388.21 710.949C2396.81 704.938 2405.8 699.476 2414.75 694.015C2418.02 691.985 2421.23 689.872 2424.44 687.75C2433.17 682.05 2442.37 677.185 2451.57 672.299C2453.56 671.233 2455.54 670.147 2457.52 669.042C2476.95 658.555 2502.18 656.376 2521 669.242Z" fill="#979796"/>
<path d="M2881.69 1212.36C2888.55 1214.01 2895.41 1215.49 2902.34 1216.84C2914.46 1219.21 2926.44 1222.14 2938.44 1225.06C2940.64 1225.6 2942.85 1226.13 2945.06 1226.67C2946.13 1226.93 2947.2 1227.18 2948.31 1227.45C2952.36 1228.43 2956.41 1229.41 2960.46 1230.39C2962.58 1230.9 2964.71 1231.42 2966.83 1231.93C2972.45 1233.28 2978.08 1234.38 2983.78 1235.35C2994.05 1237.09 3004.18 1239.4 3014.34 1241.71C3017.56 1242.44 3020.78 1243.16 3024.01 1243.88C3034.27 1246.2 3044.5 1248.56 3054.69 1251.2C3058.07 1252.02 3061.45 1252.65 3064.87 1253.25C3088.98 1258 3118.14 1265.6 3133.37 1286.31C3140.56 1298.19 3142.05 1311.44 3139.29 1324.94C3135.5 1338.8 3128.07 1352.89 3119 1364C3118.08 1365.79 3117.2 1367.6 3116.37 1369.44C3113.67 1375.03 3110.42 1379.9 3106.69 1384.84C3103.86 1388.63 3101.56 1392.53 3099.31 1396.68C3097.11 1400.58 3094.58 1404.24 3092.06 1407.94C3088.4 1413.37 3084.85 1418.81 3081.55 1424.46C3079.5 1427.81 3077.32 1431.06 3075.12 1434.31C3071.35 1439.93 3067.73 1445.62 3064.21 1451.4C3061.45 1455.92 3058.63 1460.4 3055.81 1464.88C3055.31 1465.67 3054.81 1466.47 3054.3 1467.29C3052.06 1470.84 3049.79 1474.34 3047.32 1477.74C3044.76 1481.26 3042.8 1484.99 3040.82 1488.86C3039.24 1491.59 3037.56 1494.09 3035.73 1496.65C3031.92 1502.02 3028.55 1507.6 3025.19 1513.25C3020.46 1521.12 3015.58 1528.71 3010.09 1536.06C3008.23 1538.68 3006.64 1541.35 3005.08 1544.15C3003.07 1547.59 3000.75 1550.82 2998.44 1554.06C2997.65 1555.17 2997.65 1555.17 2996.85 1556.29C2973.49 1588.97 2973.49 1588.97 2957.27 1591.76C2943.58 1593.22 2931.62 1590.31 2920 1583C2907.5 1572.56 2899.83 1555.43 2893.12 1540.94C2892.74 1540.12 2892.35 1539.29 2891.96 1538.45C2885.71 1525.13 2880.08 1511.67 2874.76 1497.97C2871.63 1489.94 2868.14 1482.08 2864.56 1474.24C2862.19 1468.99 2860.3 1463.85 2858.74 1458.31C2857.82 1455.45 2856.54 1452.94 2855.15 1450.3C2852.52 1445.03 2850.42 1439.51 2848.19 1434.06C2847.65 1432.75 2847.1 1431.43 2846.56 1430.12C2844.39 1424.85 2842.23 1419.58 2840.08 1414.3C2839.55 1413.02 2839.03 1411.73 2838.5 1410.44C2838.24 1409.81 2837.99 1409.19 2837.73 1408.55C2834.37 1400.4 2830.86 1392.32 2827.35 1384.23C2824.95 1378.67 2822.63 1373.1 2820.48 1367.43C2817.61 1359.86 2814.28 1352.51 2810.93 1345.13C2808.47 1339.63 2806.42 1334.27 2804.79 1328.47C2803.62 1324.8 2801.98 1321.38 2800.34 1317.88C2773.68 1260.62 2773.68 1260.62 2779.69 1236.2C2784.86 1222.33 2794.92 1212.62 2808 1206C2830.78 1197.61 2859.26 1206.94 2881.69 1212.36Z" fill="#979796"/>
</svg>
